<svg width="26" height="20" viewBox="0 0 26 20" xmlns="http://www.w3.org/2000/svg"><g transform="translate(-11 -14)" fill="none" fill-rule="evenodd"><circle stroke="currentColor" stroke-width="2" cx="24" cy="24" r="24"/><g fill="currentColor"><path d="M36.103 33.276H11.897V20.724h24.206v12.552zm-23.31-.897h22.414V21.62H12.793v10.76z"/><path d="M26.69 33.276h-5.38v-7.173h5.38v7.173zm-4.483-.897h3.586V27h-3.586v5.38zM19.517 28.793h-4.483v-4.93h4.483v4.93zm-3.586-.896h2.69V24.76h-2.69v3.137z"/><path d="M16.828 24.76h.897v3.137h-.897zM32.966 28.793h-4.483v-4.93h4.483v4.93zm-3.587-.896h2.69V24.76h-2.69v3.137z"/><path d="M30.276 24.76h.897v3.137h-.897zM12.345 30.586h9.414v.897h-9.415zM26.24 30.586h9.415v.897H26.24zM23.552 22.517h.897v1.345h-.898z"/><path d="M26.062 25.207h-4.124l.896-1.793h2.332l.896 1.793zm-2.69-.897h1.256-1.256zM24.448 29.24h.897v.898h-.897zM37 21.62H11v-2.554l13-4.663 13 4.663v2.555zm-25.103-.896h24.206v-1.03L24 15.39l-12.103 4.303v1.03z"/></g></g></svg>