<svg width="30" height="18" viewBox="0 0 30 18" xmlns="http://www.w3.org/2000/svg"><g transform="translate(-9 -15)" fill="none" fill-rule="evenodd"><circle stroke="currentColor" stroke-width="2" cx="24" cy="24" r="24"/><path d="M22.824 24.274h.26l-.056.267c-.03.143.058.28.198.312.14.03.28-.057.312-.2l.076-.378h.436c.053 0 .095-.044.095-.098v-.542c0-.053-.042-.096-.095-.096h-1.226c-.054 0-.098.043-.098.096v.542c0 .055.044.098.098.098z" fill="#E23F34"/><path d="M32.91 21.56c-.168 0-.332.01-.494.023l.104.3s.164.495.377 1.123h.014c2.366 0 4.285 1.918 4.285 4.285 0 2.366-1.92 4.284-4.284 4.284-2.366 0-4.282-1.918-4.282-4.283 0-1.637.92-3.06 2.27-3.78l1.47 3.43c-.054.105-.085.224-.085.35 0 .435.353.788.79.788.433 0 .786-.353.786-.787 0-.326-.198-.606-.48-.724l-2.125-5.596c-.08-.214-.317-.322-.53-.248l-1.172-2.733 1.43-.452c.145-.046.253-.152.306-.282l.362-.698c.293-.086.51-.356.51-.678.002-.392-.315-.71-.707-.713-.393 0-.71.316-.713.708 0 .086.016.167.042.244l-.29.555-1.72.544c-.07.022-.135.06-.185.11-.123.11-.18.28-.145.444.003.018.008.037.014.056.01.03.02.06.037.087l.277.644-7.53 2.342-.086-.263c-.02-.057-.074-.1-.138-.1-.012 0-.025.004-.037.007l-.07.022-.794-2.172 2.37-.74c.015-.042.02-.092.02-.147 0-.208-.113-.385-.265-.434-.1-.03-.215-.046-.337-.046-.59 0-1.425.054-2.458.087-.616.02-1.576-.05-2.224-.103-.01-.002-.023-.002-.034-.002-.244 0-.442.254-.442.564 0 .218.097.407.238.5l.865.63c.03.027.777.528 1.558.08l.742 2.022-.022.008c-.06.018-.102.073-.102.14 0 .016.003.032.01.047l.17.52-4.977 4.986c-.035-.005-.072-.01-.108-.01-.436 0-.788.353-.788.788 0 .434.354.787.788.787.256 0 .484-.123.628-.314h3.63c-.236 2.145-2.052 3.812-4.258 3.812-2.366 0-4.284-1.917-4.284-4.283 0-2.368 1.918-4.285 4.284-4.285.66 0 1.286.15 1.844.417l1.065-1.067c-.852-.503-1.846-.794-2.906-.794-3.165 0-5.73 2.565-5.73 5.73 0 3.163 2.565 5.727 5.73 5.727 3.002 0 5.467-2.312 5.707-5.255h.56c.13.37.412.67.768.83l-.356 1.71h-.4c-.052 0-.096.043-.096.098v.542c0 .053.044.097.097.097h1.228c.054 0 .096-.045.096-.096V30.4c0-.053-.042-.097-.095-.097h-.264l.33-1.594h.03c.785 0 1.42-.635 1.42-1.418 0-.2-.043-.392-.118-.566l5.588-6.195.706 1.65c-1.864.945-3.142 2.878-3.142 5.112 0 3.164 2.564 5.728 5.728 5.728 3.162 0 5.728-2.564 5.728-5.728.002-3.167-2.562-5.73-5.727-5.73zm-11.52 5.256h-5.126l2.2-2.207c.302.374.54.802.703 1.266h1.508c-.22-.857-.63-1.638-1.186-2.293l1.05-1.053 1.222 3.718c-.167.157-.296.35-.373.568zm1.772-.878c-.088-.03-.182-.05-.28-.06l-1.266-3.853 7.158-2.23-5.612 6.143z" fill="currentColor"/></g></svg>