<svg width="24" height="24" viewBox="0 0 24 24" xmlns="http://www.w3.org/2000/svg"><g transform="translate(-12 -12)" fill="none" fill-rule="evenodd"><circle stroke="currentColor" stroke-width="2" cx="24" cy="24" r="24"/><path d="M31.183 35.904c-.957 0-1.894-.276-2.557-.934-1.02-1.014-1.395-2.514-1-3.908l-3.54-3.522-5.535 5.566c-.052.053-.135.116-.204.144l-4.53 1.875c-.212.087-.456.04-.618-.122l-.058-.057c-.158-.158-.21-.394-.132-.604l1.734-4.654c.11-.295.44-.444.733-.335.294.11.445.438.334.733l-1.314 3.525 3.308-1.368 5.874-5.91c.107-.107.252-.167.403-.167.14-.02.298.06.405.168l4.194 4.17c.16.16.21.398.13.607-.413 1.07-.17 2.27.62 3.052.544.54 1.42.682 2.274.572-.508-.33-.883-.648-.912-.67-1.125-1.116-1.015-2.607-.277-3.47l.05-.06.05-.05c.008-.005.014-.01.02-.017.852-.782 2.378-.933 3.492.175.04.046.37.43.707.94.107-.852-.04-1.73-.585-2.268-.79-.783-1.99-1.017-3.06-.596-.21.08-.448.032-.608-.126l-4.214-4.18c-.22-.218-.226-.575-.01-.798.038-.04.08-.072.125-.098l7.932-7.978c.026-.026.03-.054.03-.074 0-.02-.005-.05-.03-.075l-1.91-1.9c-.04-.04-.108-.042-.15 0l-8.033 8.08c-.11.11-.263.167-.41.17-.155-.003-.3-.067-.407-.18l-4.184-4.158c-.16-.16-.21-.398-.13-.608.412-1.07.17-2.27-.62-3.052-.545-.54-1.423-.68-2.274-.57.508.328.884.646.912.67 1.122 1.11 1.015 2.596.282 3.462-.017.024-.036.047-.056.068l-.05.05c-.026.027-.053.05-.082.07-.862.733-2.34.848-3.43-.23-.04-.045-.367-.428-.705-.94-.106.853.042 1.73.585 2.268.787.782 1.987 1.017 3.058.597.21-.083.45-.033.61.126l4.212 4.177c.22.22.226.576.01.8-.038.038-.08.07-.125.097l-2.807 2.825c-.22.223-.582.225-.805.003-.224-.222-.225-.583-.003-.806l2.51-2.526-3.545-3.514c-1.397.405-2.898.04-3.918-.972-1.22-1.21-1.147-3.363-.444-4.865.1-.214.323-.35.56-.326.237.02.438.182.504.41.195.677.886 1.578 1.137 1.87.622.614 1.442.524 1.888.11.41-.45.495-1.27-.157-1.918-.26-.22-1.17-.905-1.845-1.095-.228-.064-.393-.263-.414-.5-.02-.235.107-.46.32-.562 1.498-.715 3.65-.803 4.873.41 1.02 1.014 1.395 2.513 1 3.908l3.543 3.523 7.632-7.677c.484-.485 1.273-.488 1.76-.005l1.91 1.902c.237.234.367.548.367.88 0 .332-.127.645-.362.88L27.59 24.02l3.542 3.513c1.395-.404 2.9-.04 3.92.972 1.218 1.21 1.145 3.363.44 4.864-.1.214-.32.346-.56.325-.237-.018-.437-.182-.503-.41-.196-.676-.887-1.577-1.138-1.868-.622-.617-1.44-.525-1.888-.11-.41.45-.495 1.268.157 1.916.262.22 1.17.905 1.846 1.094.228.065.393.264.414.5.02.237-.108.46-.322.562-.684.327-1.507.524-2.315.524z" fill="currentColor"/></g></svg>