<svg width="16" height="26" viewBox="0 0 16 26" xmlns="http://www.w3.org/2000/svg"><g transform="translate(-16 -12)" fill="none" fill-rule="evenodd"><circle stroke="currentColor" stroke-width="2" cx="24" cy="24" r="24"/><g fill="currentColor"><path d="M29.715 32.927h-4.837V31.66h4.837c.13 0 .236-.107.236-.24V13.506c0-.13-.105-.237-.235-.237H17.268v19.025H16V12h13.715c.83 0 1.505.675 1.505 1.505v17.917c0 .83-.675 1.505-1.505 1.505z"/><path d="M24.628 37.84c-.155 0-.306-.042-.44-.124l-7.793-4.825c-.248-.153-.395-.418-.395-.71V12.995c0-.46.375-.835.835-.835.154 0 .306.042.438.125l7.795 4.824c.248.15.396.417.396.71v19.186c0 .46-.375.835-.836.835zm-7.36-5.9l6.928 4.288V18.06l-6.928-4.288V31.94z"/><path d="M22.34 24.683h1.27v2.537h-1.27z"/></g></g></svg>