<svg width="30" height="25" viewBox="0 0 30 25" xmlns="http://www.w3.org/2000/svg"><g transform="translate(-9 -12)" fill="none" fill-rule="evenodd"><circle stroke="currentColor" stroke-width="2" cx="24" cy="24" r="24"/><path d="M38.987 18.636c0-.944-.37-1.836-1.04-2.51-.67-.678-1.56-1.05-2.504-1.05-1.95 0-3.538 1.59-3.543 3.55v.012l.003 4.618v1.19c-.647-1.393-1.598-2.638-2.808-3.647-1.302-1.087-2.854-1.864-4.534-2.292.374-.363.606-.87.606-1.432 0-1.108-.898-2.01-2-2.01h-.01c-.134 0-.264.013-.39.038-.77-1.822-2.58-3.104-4.682-3.104-2.112 0-3.93 1.28-4.703 3.102-.12-.023-.247-.036-.377-.036h-.01c-1.1 0-1.993.897-1.993 2 0 1.107.898 2.01 2 2.01h.012c.125 0 .25-.014.368-.036.276.65.685 1.233 1.194 1.713.254 1.53 1.497 2.73 3.05 2.924v5.105c0 .117-.048.227-.133.31l-3.563 3.566c-.776.778-.774 2.044.005 2.823.392.394.908.59 1.423.59.512 0 1.024-.194 1.413-.584l.998-.997c.197.9.998 1.58 1.954 1.58H26.168c2.82 0 5.39-1.707 6.49-4.277.823-.074 1.59-.433 2.19-1.03.68-.675 1.055-1.567 1.055-2.512v-6.543c.312.205.686.324 1.086.324h.018c1.098 0 1.992-.896 1.992-2.003l-.013-1.39zm-27.066-1.57c0-.585.493-1.078 1.07-1.078H13c.034 0 .066 0 .098.004-.077.348-.117.71-.117 1.078 0 .37.04.732.117 1.08-.028.002-.057.003-.085.003h-.01c-.596 0-1.08-.488-1.08-1.088zm1.983.004c0-2.287 1.875-4.148 4.182-4.148 2.283 0 4.142 1.846 4.157 4.12v.028c0 .797-.227 1.543-.622 2.175v-3.05-.01c0-.008 0-.017-.002-.026 0-.007 0-.014-.002-.02 0-.008 0-.017-.003-.025l-.005-.02c0-.01-.003-.016-.005-.023l-.006-.022-.008-.02-.01-.022-.01-.02-.01-.02-.01-.018-.016-.022-.004-.007-.007-.008-.016-.02-.015-.015-.015-.016-.02-.015-.014-.013-.02-.014c-.005-.005-.01-.008-.016-.012l-.02-.012-.02-.01-.02-.01-.022-.01-.018-.006-.024-.007c-.007 0-.013-.003-.02-.004l-.024-.005c-.008 0-.015 0-.022-.002l-.022-.002-.025-.002H21.153c-.01 0-.018 0-.027.002-.007 0-.013 0-.02.002l-.025.003c-.006.003-.013.004-.02.005l-.023.007-.02.006-.02.007-.023.01-.02.008-.02.012-.018.01-.02.015c-.004 0-.006.003-.01.005-.828.614-1.806.938-2.825.938-1.008 0-1.976-.324-2.8-.937l-.008-.006-.02-.014-.018-.01c-.007-.005-.014-.01-.022-.013l-.02-.01-.02-.007-.02-.008-.022-.006-.023-.006-.02-.004c-.01 0-.017-.003-.025-.004-.007 0-.013 0-.02-.002h-.027l-.01-.002h-.01c-.007 0-.016 0-.025.002-.006 0-.013 0-.02.002-.008 0-.016.002-.023.003-.007.003-.015.004-.023.006-.006 0-.013.003-.02.005l-.023.008-.018.007-.023.01-.02.008-.02.01c-.006.005-.013.01-.02.013l-.017.01-.02.016-.015.012-.02.017-.014.016-.014.016-.016.02-.007.007-.005.008-.015.02-.01.018-.012.022-.01.02-.008.02-.007.022-.007.02-.006.023c0 .007-.002.014-.004.02 0 .01-.003.017-.004.026l-.003.018v.027l-.002.01v3.055c-.394-.633-.622-1.38-.622-2.18zm10.342.006c0 .583-.49 1.077-1.07 1.077h-.01c-.04 0-.078-.002-.117-.006.068-.312.108-.635.115-.966l.002-.11c0-.37-.04-.73-.116-1.077.033-.004.068-.006.103-.006h.012c.594 0 1.08.49 1.08 1.09zm-8.8 3.096V17.03c.807.43 1.697.654 2.614.654.928 0 1.826-.225 2.64-.656v3.144c0 .695-.276 1.35-.776 1.846-.5.494-1.16.766-1.86.766-1.443 0-2.618-1.172-2.618-2.612zm21.562.937h-.018c-.58 0-1.072-.494-1.072-1.078v-.006l-.015-1.395c-.003-.252-.21-.454-.463-.454-.254 0-.46.207-.46.46v9.616c0 .696-.276 1.357-.78 1.858-.505.5-1.168.777-1.867.777h-.017c-.216.01-.394.165-.435.37-.75 1.92-2.434 3.315-4.408 3.747.153-.286.24-.615.24-.965v-2.764c0-.254-.205-.46-.46-.46-.254 0-.46.206-.46.46v2.763c0 .6-.495 1.107-1.08 1.107H19.72c-.595 0-1.08-.488-1.08-1.088 0-.585.49-1.08 1.072-1.08h4.453c.255 0 .46-.205.46-.46V29.42c0-.693.276-1.345.774-1.837.498-.49 1.16-.76 1.86-.76.255 0 .46-.205.46-.46 0-.254-.205-.46-.46-.46-.945 0-1.834.364-2.507 1.024-.676.666-1.05 1.552-1.05 2.494v2.64h-3.507l.842-.84c.382-.38.593-.883.593-1.416v-3.44c0-.256-.205-.462-.46-.462s-.46.206-.46.46v3.442c0 .286-.114.557-.322.763l-2.025 2.023c-.037.035-.074.073-.11.11l-2.136 2.137c-.422.42-1.11.42-1.533-.006-.413-.414-.416-1.11-.006-1.52l3.563-3.563c.26-.258.404-.6.404-.965v-5.11c.763-.1 1.47-.448 2.03-1 .535-.53.88-1.2 1-1.927.485-.46.882-1.013 1.156-1.63 2.16.23 4.176 1.06 5.774 2.392 1.92 1.6 3.126 3.85 3.397 6.335.026.236.226.41.46.41h.003c.255 0 .46-.205.46-.46v-9.158c0-1.454 1.175-2.637 2.62-2.637.696 0 1.354.276 1.85.777.5.502.773 1.163.773 1.867l.013 1.392c-.002.584-.492 1.077-1.073 1.077z" fill="currentColor"/></g></svg>