<svg width="26" height="26" viewBox="0 0 26 26" xmlns="http://www.w3.org/2000/svg"><g transform="translate(-11 -11)" fill="none" fill-rule="evenodd"><circle stroke="currentColor" stroke-width="2" cx="24" cy="24" r="24"/><g fill="currentColor"><path d="M22.672 20.126c.903 0 1.883.397 2.496 1.01l1.695 1.696c.66.66 1.063 1.735 1.006 2.677-.027.425-.162 1.014-.653 1.398-.21.162-.528.374-.867.597-1.128.745-2.406 1.59-2.785 2.59-.287.76-.38 1.532-.46 2.214-.118.985-.21 1.764-.772 2.326-.827.826-1.948 1.263-3.24 1.263-1.718 0-3.485-.782-4.847-2.145-1.218-1.217-1.97-2.746-2.12-4.303-.14-1.5.298-2.843 1.24-3.784.56-.56 1.34-.654 2.327-.77.68-.083 1.454-.176 2.212-.46 1.002-.38 1.846-1.66 2.59-2.787.224-.337.435-.657.598-.865.424-.545 1.093-.66 1.58-.66zm0-.813c-.87 0-1.692.295-2.22.97-.68.872-1.8 3.002-2.835 3.393-1.712.647-3.584.174-4.826 1.417-2.307 2.308-1.913 6.443.88 9.236 1.57 1.57 3.566 2.382 5.42 2.382 1.446 0 2.806-.493 3.817-1.503 1.244-1.244.77-3.115 1.417-4.827.39-1.034 2.52-2.155 3.392-2.836 1.537-1.2 1.1-3.912-.28-5.29l-1.694-1.695c-.77-.772-1.96-1.25-3.07-1.25z"/><path d="M22.632 28.107c-1.51 0-2.74-1.23-2.74-2.74 0-1.51 1.23-2.738 2.74-2.738 1.51 0 2.74 1.228 2.74 2.738s-1.23 2.74-2.74 2.74zm0-4.665c-1.063 0-1.927.864-1.927 1.926 0 1.062.864 1.926 1.927 1.926 1.062 0 1.926-.864 1.926-1.926 0-1.062-.864-1.926-1.926-1.926zM32.46 14.576l.965.963-6.328 6.327-.963-.963 6.327-6.328zm0-1.15l-7.475 7.478 2.112 2.112 7.476-7.477-2.112-2.113z"/><path d="M35.696 13.266c.307.306.307.806 0 1.114l-.577.576c-.308.306-.807.306-1.114 0l-.96-.96c-.308-.308-.308-.808 0-1.115l.576-.575c.306-.307.806-.307 1.113 0l.96.96zm.556-.557l-.96-.963c-.613-.612-1.615-.612-2.227 0l-.577.577c-.613.613-.613 1.615 0 2.227l.96.963c.614.613 1.616.613 2.228 0l.576-.577c.613-.612.613-1.615 0-2.227z"/><path d="M34.563 16.176c-.476 0-.923-.185-1.258-.52l-.96-.96c-.336-.336-.52-.782-.52-1.258s.184-.923.52-1.258l.576-.576c.335-.335.782-.52 1.258-.52s.923.185 1.258.52l.96.96c.335.336.52.782.52 1.258s-.185.923-.52 1.258l-.576.576c-.335.335-.78.52-1.257.52zm-.385-4.685c-.367 0-.712.143-.97.4l-.577.577c-.257.26-.4.603-.4.97 0 .37.143.713.4.97l.962.962c.517.516 1.425.516 1.94 0l.576-.577c.26-.258.4-.603.4-.97 0-.368-.142-.713-.4-.97l-.96-.962c-.258-.257-.603-.4-.97-.4zm.384 3.9c-.264 0-.513-.104-.7-.29l-.96-.96c-.188-.188-.29-.437-.29-.702 0-.265.102-.514.29-.7l.576-.577c.372-.37 1.027-.372 1.4 0l.96.962c.188.187.29.436.29.7 0 .265-.102.515-.29.7l-.575.577c-.187.186-.436.29-.7.29zm-.384-3.112c-.156 0-.303.06-.413.17l-.577.577c-.11.11-.17.257-.17.413 0 .157.06.303.17.413l.96.962c.222.22.607.22.828 0l.576-.575c.11-.11.17-.258.17-.414 0-.156-.06-.303-.17-.413l-.96-.962c-.11-.11-.258-.17-.414-.17zM15.614 28.37l3.11 3.42-.602.548-3.11-3.42.602-.548z"/></g></g></svg>