<svg width="27" height="24" viewBox="0 0 27 24" xmlns="http://www.w3.org/2000/svg"><g transform="translate(-10 -11)" fill="none" fill-rule="evenodd"><circle stroke="currentColor" stroke-width="2" cx="24" cy="24" r="24"/><path d="M36.25 34.59H10.584c-.323 0-.584-.263-.584-.585 0-.322.26-.583.584-.583H36.25c.322 0 .584.26.584.583 0 .322-.262.584-.584.584zm-17.5-5.835c.322 0 .583.26.583.584 0 .32-.26.582-.583.582h-4.666c-.323 0-.584-.26-.584-.583 0-.324.26-.585.584-.585h.583v-7.583h-.583c-.323 0-.584-.26-.584-.583 0-.324.26-.585.584-.585h4.666c.322 0 .583.26.583.584 0 .32-.26.582-.583.582h-.583v7.583h.583zM17 21.172h-1.166v7.583H17v-7.583zm8.75 7.583c.322 0 .583.26.583.584 0 .32-.26.582-.583.582h-4.666c-.323 0-.584-.26-.584-.583 0-.324.26-.585.584-.585h.583v-7.583h-.583c-.323 0-.584-.26-.584-.583 0-.324.26-.585.584-.585h4.666c.322 0 .583.26.583.584 0 .32-.26.582-.583.582h-.583v7.583h.583zM24 21.172h-1.166v7.583H24v-7.583zm11.084 10.5c0 .322-.26.583-.584.583H12.333c-.322 0-.583-.26-.583-.583 0-.322.26-.583.583-.583H34.5c.323 0 .584.26.584.582zm-2.334-2.917c.322 0 .583.26.583.584 0 .32-.26.582-.583.582h-4.666c-.323 0-.584-.26-.584-.583 0-.324.26-.585.584-.585h.583v-7.583h-.583c-.323 0-.584-.26-.584-.583 0-.324.26-.585.584-.585h4.666c.322 0 .583.26.583.584 0 .32-.26.582-.583.582h-.583v7.583h.583zM31 21.172h-1.166v7.583H31v-7.583zm-19.833-3.5L23.417 11l12.25 6.672v1.167h-24.5V17.67zm21.898 0l-9.648-4.99-9.686 4.99h19.335z" fill="currentColor"/></g></svg>