<svg width="30" height="23" viewBox="0 0 30 23" xmlns="http://www.w3.org/2000/svg"><g transform="translate(-9 -13)" fill="none" fill-rule="evenodd"><circle stroke="currentColor" stroke-width="2" cx="24" cy="24" r="24"/><g fill="currentColor"><path d="M36.478 24.615c-.562-.218-1.193-.308-1.837-.31H13.16c.4 10.906 8.715 11.425 10.74 11.425 1.387 0 5.722-.245 8.446-3.9.334.067.71.105 1.106.105 1.29 0 2.794-.375 3.75-1.312 1.915-1.877 1.878-4.994-.724-6.008zM28.98 32.67c-1.894 1.186-3.995 1.363-5.08 1.363-1.084 0-3.185-.177-5.08-1.363-2.105-1.32-3.385-3.56-3.816-6.67h17.794c-.43 3.11-1.71 5.35-3.817 6.67zm7.035-3.258c-.52.51-1.502.827-2.563.827-.05 0-.093-.006-.14-.007.56-1.15.98-2.543 1.19-4.225.044 0 .087-.006.13-.006.486 0 .9.065 1.23.194.542.21.853.553.955 1.047.143.7-.172 1.55-.802 2.17zM20.124 23.075c.18 0 .36-.056.513-.173.373-.285.445-.816.16-1.19-.596-.782-.848-1.487-.747-2.095.058-.354.226-.603.44-.917.26-.388.586-.87.7-1.586.177-1.11-.233-2.295-1.217-3.525-.293-.367-.826-.426-1.192-.134-.365.293-.424.827-.132 1.192.674.842.966 1.58.867 2.2-.055.344-.213.578-.432.902-.26.388-.587.87-.707 1.59-.18 1.087.18 2.232 1.073 3.4.166.22.418.335.674.335zM24.01 23.075c.18 0 .36-.056.514-.173.373-.285.444-.816.16-1.19-.597-.782-.848-1.488-.748-2.095.06-.354.227-.603.44-.917.26-.388.587-.87.7-1.587.177-1.108-.233-2.294-1.217-3.524-.293-.367-.827-.426-1.193-.134-.365.293-.425.827-.132 1.192.673.842.965 1.582.867 2.2-.055.344-.213.578-.432.902-.262.388-.588.87-.707 1.59-.18 1.087.18 2.232 1.072 3.4.168.22.42.335.676.335zM27.745 23.075c.18 0 .36-.056.513-.173.373-.285.445-.816.16-1.19-.597-.782-.848-1.487-.747-2.096.06-.353.227-.602.44-.916.262-.388.587-.87.7-1.586.178-1.11-.232-2.295-1.216-3.525-.293-.367-.826-.426-1.192-.134-.366.293-.425.827-.133 1.192.673.842.965 1.58.866 2.2-.055.344-.213.578-.43.902-.263.388-.59.87-.708 1.59-.18 1.087.18 2.232 1.072 3.4.167.22.42.335.675.335z"/></g></g></svg>