<svg width="30" height="25" viewBox="0 0 30 25" xmlns="http://www.w3.org/2000/svg"><g transform="translate(-9 -12)" stroke="currentColor" fill="none" fill-rule="evenodd"><circle stroke-width="2" cx="24" cy="24" r="24"/><path d="M37.608 16.494c-2.216-1.678-4.684-2.975-7.374-3.893-.03 0-.03-.03-.063-.03l-.474-.16-.285-.094c-.283-.063-.568-.03-.79.127-.22.158-.41.38-.443.665 0 .063-.03.158-.063.253-2.69.317-5.443.317-8.133 0-.03-.094-.03-.19-.062-.252-.064-.285-.222-.538-.443-.665-.222-.158-.538-.19-.79-.127l-.286.095-.476.16h-.032c-2.72.917-5.253 2.246-7.53 3.987-.73.538-.856 1.14-.476 1.994.79 1.678 1.424 3.007 1.994 4.21.348.76.917 1.044 1.772.886.79-.16 1.614-.317 2.437-.475l.252-.062V35.418c0 1.044.538 1.582 1.582 1.582H30.14c1.138 0 1.645-.538 1.645-1.677V23.076l.19.032 2.468.474c.886.16 1.424-.095 1.804-.886.633-1.36 1.297-2.72 1.93-4.082.38-.95.253-1.487-.57-2.12zM24 14.88c1.234 0 2.468-.064 3.703-.19-.254.696-.633 1.456-1.14 1.835-.728.57-1.582.855-2.53.855H24c-.95 0-1.804-.285-2.532-.855-.474-.38-.854-1.107-1.14-1.803 1.235.094 2.47.158 3.672.158zm12.91 3.164c-.632 1.36-1.296 2.722-1.93 4.083-.062.095-.094.158-.094.19-.032 0-.095 0-.253-.032-.823-.158-1.614-.317-2.468-.475l-.98-.19c-.19-.03-.413 0-.54.158-.158.127-.253.317-.253.507v13.07c0 .158 0 .253-.03.316-.033 0-.128.033-.286.033H17.86c-.126 0-.19 0-.22-.032 0-.03-.032-.094-.032-.22V22.315c0-.19-.095-.38-.254-.506-.158-.126-.348-.19-.57-.126l-1.043.19c-.822.158-1.613.316-2.436.474-.127.032-.19.032-.222.032-.03-.032-.03-.064-.095-.158-.57-1.203-1.202-2.564-1.993-4.21-.064-.094-.064-.158-.095-.22.03-.033.062-.064.157-.127 2.184-1.646 4.59-2.943 7.184-3.798 0 0 .032 0 .032-.032.063-.03.158-.063.317-.094.188.887.758 2.912 1.992 3.86.98.76 2.12 1.14 3.355 1.14 1.234 0 2.373-.38 3.386-1.14 1.234-.948 1.804-3.005 1.993-3.86.127.032.254.095.285.095.033 0 .033.032.065.032 2.563.886 4.936 2.12 7.025 3.703.126.095.19.158.22.19.096.03.065.126 0 .284z" fill="currentColor"/></g></svg>