<svg width="30" height="25" viewBox="0 0 30 25" xmlns="http://www.w3.org/2000/svg"><g transform="translate(-9 -12)" fill="none" fill-rule="evenodd"><circle stroke="currentColor" stroke-width="2" cx="24" cy="24" r="24"/><path d="M19.49 22.44c-2.23 0-4.04-1.813-4.04-4.04 0-2.228 1.81-4.04 4.04-4.04 2.226 0 4.038 1.812 4.038 4.04 0 2.227-1.812 4.04-4.04 4.04zm0-6.996c-1.63 0-2.957 1.326-2.957 2.956s1.326 2.956 2.956 2.956c1.627 0 2.954-1.326 2.954-2.956s-1.327-2.956-2.956-2.956zm18.028 4.866H28.87c-.3 0-.54-.24-.54-.54 0-2.683 2.18-4.866 4.864-4.866 2.683 0 4.865 2.183 4.865 4.866 0 .3-.244.54-.543.54zm-8.068-1.08h7.487c-.263-1.83-1.84-3.24-3.743-3.24-1.902 0-3.48 1.41-3.744 3.24zm9.008 3.215H27.93c-.3 0-.542-.243-.542-.542 0-.3.242-.54.542-.54h10.528c.3 0 .542.24.542.54 0 .3-.242.542-.542.542zm-4.063-7.972c-.3 0-.54-.242-.54-.54 0-.365-.297-.66-.66-.66-.365 0-.66.295-.66.66 0 .298-.244.54-.543.54-.3 0-.542-.242-.542-.54 0-.962.782-1.744 1.744-1.744.96 0 1.743.78 1.743 1.74 0 .3-.242.54-.542.54zm-8.96 22.255H13.542c-.3 0-.542-.242-.542-.54V27.83c0-2.676 2.178-4.855 4.855-4.855h3.267c.708 0 2.373.52 2.673.747l5.164 3.94 2.984-4.068c.345-.47.9-.75 1.483-.75.394 0 .77.123 1.086.356.396.29.655.718.73 1.203.075.486-.044.97-.335 1.367l-4.094 5.578c-.292.395-.736.662-1.22.732-.52.066-.99-.063-1.377-.358l-2.243-1.71v6.214c-.022.28-.256.5-.542.5zm-11.352-1.083h10.81v-6.728c0-.205.118-.394.303-.485.184-.09.404-.07.568.055l3.11 2.375c.164.124.374.173.575.146.19-.027.372-.137.492-.3l4.093-5.578c.12-.162.17-.362.138-.56-.03-.2-.137-.375-.3-.495-.328-.24-.816-.163-1.056.162l-3.31 4.514c-.087.12-.217.196-.36.217-.147.02-.29-.017-.407-.106l-5.6-4.273c-.17-.09-1.51-.526-2.018-.526h-3.267c-2.08 0-3.772 1.694-3.772 3.773v7.813z" fill="currentColor"/></g></svg>