<svg width="24" height="24" viewBox="0 0 24 24" xmlns="http://www.w3.org/2000/svg"><g transform="translate(-12 -12)" fill="none" fill-rule="evenodd"><circle stroke="currentColor" stroke-width="2" cx="24" cy="24" r="24"/><path d="M18.48 12c-.397 0-.72.32-.72.722v2.396c0 .4.32.722.72.722h.48c.397 0 .72-.32.72-.722v-2.396c0-.4-.32-.722-.72-.722h-.48zm10.8 0c-.53 0-.96.43-.96.96v1.92c0 .53.43.96.96.96s.96-.43.96-.96v-1.92c0-.53-.43-.96-.96-.96zm-15.12 6.96v1.2H33.6v-1.2H14.16zm6.48-5.04v1.2h6.72v-1.2h-6.72zm10.56 0v1.2h3.6v18.72H13.2V15.12h3.6v-1.2H12v19.92c0 1.2 1.2 1.2 1.2 1.2h21.6s1.2 0 1.2-1.2V13.92h-4.8zm-2.15 12.374l-2.355 1.874c-.084.082-.123.2-.103.315l.82 2.848c.046.264-.163.477-.4.477-.062 0-.126-.014-.19-.047l-2.483-1.64c-.053-.027-.11-.04-.166-.04-.057 0-.114.013-.166.04l-2.484 1.64c-.062.033-.127.047-.19.047-.236 0-.445-.213-.4-.476l.82-2.847c.02-.116-.018-.233-.102-.315l-2.355-1.874c-.24-.236-.11-.645.225-.694l2.99-.08c.117-.017.217-.09.268-.194l1.03-2.84c.074-.15.218-.226.364-.226.145 0 .29.075.364.227l1.03 2.84c.05.103.15.176.266.193l2.99.08c.334.05.467.458.226.694z" fill="currentColor"/></g></svg>