<svg width="24" height="23" viewBox="0 0 24 23" xmlns="http://www.w3.org/2000/svg"><g transform="translate(-12 -13)" fill="none" fill-rule="evenodd"><circle stroke="currentColor" stroke-width="2" cx="24" cy="24" r="24"/><g fill="currentColor"><path d="M32.945 19.578l2.705 9.47-1.3.372-2.707-9.47 1.302-.372zM14.732 19.58l1.3.37-2.705 9.47-1.302-.37 2.707-9.47z"/><path d="M32.97 20.44H29.59V19.09h2.03v-4.394c0-.17-.09-.34-.29-.34H16.736c-.276 0-.64.23-.678.355l.002 4.378h2.028v1.353h-3.382v-5.746c0-1.034 1.2-1.694 2.03-1.694h14.593c.92 0 1.64.744 1.64 1.694v5.747zM34.324 34.647h-20.97c-.747 0-1.354-.607-1.354-1.353v-3.382c0-.746.607-1.353 1.353-1.353h20.97c.747 0 1.353.606 1.353 1.352v3.382c0 .746-.606 1.353-1.352 1.353zm-20.97-4.735v3.382h20.97v-3.382h-20.97z"/><path d="M21.47 21.794h-2.705c-.746 0-1.353-.607-1.353-1.353v-2.028c0-.746.607-1.353 1.353-1.353h2.706c.747 0 1.354.606 1.354 1.352v2.03c0 .745-.607 1.352-1.353 1.352zm-2.705-3.382v2.03h2.706v-2.03h-2.705zM28.912 21.794h-2.706c-.746 0-1.353-.607-1.353-1.353v-2.028c0-.746.607-1.353 1.353-1.353h2.706c.746 0 1.353.606 1.353 1.352v2.03c0 .745-.607 1.352-1.353 1.352zm-2.706-3.382v2.03h2.706v-2.03h-2.706z"/><path d="M22.147 19.088h3.382v1.353h-3.383zM14.03 33.97h1.352V36H14.03zM32.294 33.97h1.353V36h-1.353z"/></g></g></svg>