<svg width="22" height="22" viewBox="0 0 22 22" xmlns="http://www.w3.org/2000/svg"><g transform="translate(-14 -12)" fill="none" fill-rule="evenodd"><circle stroke="currentColor" stroke-width="2" cx="24" cy="24" r="24"/><path d="M33.333 19.065h-4V17.03c0-2.602-2.18-5.03-4.766-5.03C21.98 12 20 14.428 20 17.03v2.035h-4l-2 14.912h22l-2.667-14.912zm-12-2.033c0-1.998 1.248-3.462 3.234-3.462 1.985 0 3.433 1.464 3.433 3.462v2.033h-6.667v-2.033zm-4 3.388H20v.68c-.36.233-.6.64-.6 1.104 0 .722.58 1.308 1.292 1.308.714 0 1.292-.586 1.292-1.308 0-.486-.262-.91-.65-1.135v-.65H28v.91c-.206.23-.333.537-.333.874 0 .722.578 1.308 1.292 1.308.712 0 1.29-.586 1.29-1.308 0-.59-.386-1.09-.916-1.252v-.532H32l2 12.2H16l1.334-12.2z" fill="currentColor"/></g></svg>