<svg width="24" height="23" viewBox="0 0 24 23" xmlns="http://www.w3.org/2000/svg"><g transform="translate(-12 -13)" fill="none" fill-rule="evenodd"><circle stroke="currentColor" stroke-width="2" cx="24" cy="24" r="24"/><path d="M34.977 30.03l-8.685-8.686c.127-.524.215-1.056.215-1.603 0-1.803-.703-3.5-1.98-4.776-1.922-1.923-4.932-2.496-7.415-1.443-.093.04-.186.098-.263.166-.21.18-.337.44-.348.72-.01.275.094.544.29.742l3.4 3.398.007 1.64-1.64-.008-3.4-3.398c-.234-.236-.59-.305-.916-.237-.327.065-.615.326-.743.637-.333.814-.5 1.678-.5 2.562 0 3.725 3.03 6.756 6.754 6.756.545 0 1.078-.088 1.602-.216l8.685 8.685c.66.66 1.537 1.025 2.47 1.025.933 0 1.81-.363 2.467-1.023.66-.66 1.023-1.536 1.023-2.468 0-.936-.364-1.813-1.023-2.473zm-1.41 3.53c-.564.567-1.55.567-2.118-.003l-9.037-9.034c-.013-.016-.027-.028-.042-.04l-.006-.01c-.006-.006-.016-.01-.025-.016-.087-.082-.186-.148-.295-.194-.028-.014-.06-.016-.09-.025-.088-.028-.18-.053-.277-.054-.046-.002-.09.014-.138.02-.07.01-.138.006-.206.028-.507.18-1.04.27-1.58.27-2.626 0-4.76-2.136-4.76-4.763 0-.102.002-.2.01-.302l2.436 2.436c.186.187.438.292.7.294l3.056.014c.286.02.522-.103.71-.292.187-.19.293-.444.292-.71l-.014-3.057c-.003-.26-.107-.515-.294-.7l-2.436-2.436c1.35-.08 2.695.416 3.665 1.386.9.9 1.395 2.095 1.395 3.366 0 .544-.09 1.075-.268 1.576-.015.046-.01.093-.02.14-.015.075-.033.145-.03.22 0 .068.023.127.037.19.013.064.02.125.045.183.03.07.082.128.127.19.028.038.04.083.076.115l9.086 9.085c.282.285.438.66.438 1.06s-.157.774-.44 1.06z" fill="currentColor"/></g></svg>