<svg width="19" height="26" viewBox="0 0 19 26" xmlns="http://www.w3.org/2000/svg"><g transform="translate(-15 -11)" fill="none" fill-rule="evenodd"><circle stroke="currentColor" stroke-width="2" cx="24" cy="24" r="24"/><g fill="currentColor"><path d="M32.88 31.044H15.877c-.214 0-.413-.11-.528-.29-.116-.18-.132-.406-.04-.6l8.646-18.65c.103-.22.325-.362.57-.362h.003c.245 0 .467.146.567.37l8.355 18.65c.087.193.07.418-.046.596-.115.178-.314.286-.526.286zM16.858 29.79h15.054l-7.397-16.51-7.657 16.51z"/><path d="M24.39 36.644c-.32 0-.58-.26-.58-.582v-16.59c0-.322.26-.582.58-.582.322 0 .583.26.583.582v16.59c0 .32-.26.582-.582.582z"/><path d="M24.387 29.796c-.186 0-.37-.083-.494-.24-.213-.272-.166-.667.106-.88l3.58-2.81c.273-.214.667-.166.88.106.215.272.167.666-.105.88l-3.582 2.81c-.114.09-.25.134-.386.134zm-.18-1.634c-.16 0-.32-.06-.443-.182l-3.33-3.31c-.246-.245-.247-.643-.003-.888.245-.246.642-.247.888-.003l3.33 3.31c.246.245.247.642.003.887-.122.124-.283.185-.444.185zm.18-2.31c-.162 0-.323-.06-.445-.184-.244-.246-.243-.642.002-.887l3.078-3.06c.246-.244.643-.242.886.003.244.245.243.642-.002.886l-3.078 3.06c-.122.122-.282.183-.442.183zm-.14-2.22c-.21 0-.414-.104-.533-.296L21.81 20.25c-.183-.294-.092-.68.203-.862.294-.182.68-.09.863.204l1.905 3.085c.183.295.09.68-.203.862-.103.063-.216.093-.33.093z"/></g></g></svg>