<svg width="30" height="28" viewBox="0 0 30 28" xmlns="http://www.w3.org/2000/svg"><g transform="translate(-9 -10)" fill="none" fill-rule="evenodd"><circle stroke="currentColor" stroke-width="2" cx="24" cy="24" r="24"/><g fill="currentColor"><path d="M21.383 31.392c.206-.077.39-.21.53-.38l8.845-10.78c.213-.26.313-.587.28-.922-.034-.335-.195-.637-.455-.85l-5.395-4.427c-.347-.285-.823-.363-1.243-.205-.207.077-.39.21-.53.38l-8.845 10.78c-.214.26-.313.587-.28.922.033.335.194.637.455.85l5.395 4.427c.346.285.823.363 1.243.205zm-6.08-5.802l8.846-10.78c.035-.044.08-.075.13-.094.1-.037.216-.022.305.05l5.395 4.428c.133.108.152.303.043.436l-8.845 10.78c-.036.043-.08.075-.13.093-.1.038-.217.023-.306-.05l-5.395-4.427c-.132-.108-.152-.304-.043-.436z"/><path d="M20.458 24.595l1.77-.38c.07-.007.14.02.186.073l1.013 1.47c.073.083.18.1.27.067.04-.015.076-.04.104-.073.025-.03.043-.064.05-.106l.186-1.782c.007-.034.022-.065.044-.092.022-.026.05-.048.082-.06l1.71-.53c.04-.017.072-.04.096-.07.09-.11.07-.29-.07-.368l-1.637-.706c-.06-.035-.1-.098-.107-.168l.027-1.81c-.014-.17-.186-.263-.33-.21-.027.01-.054.027-.08.05l-1.177 1.36c-.02.02-.044.033-.07.042-.038.015-.08.018-.123.008l-1.713-.605c-.05-.012-.1-.007-.14.01-.042.014-.078.04-.105.073-.055.067-.075.164-.033.256l.927 1.562c.03.064.025.138-.012.2l-1.104 1.42c-.103.174.037.392.238.37z"/><path d="M38.827 23.72l-3.344-6.148c-.19-.35-.553-.57-.95-.582-.195-.005-.39.042-.56.135-.218.12-.458.186-.703.205.043-.314.167-.613.374-.864.387-.473.318-1.172-.154-1.56l-5.385-4.418c-.305-.25-.724-.32-1.094-.18-.18.068-.34.183-.465.333-.194.238-.446.42-.73.526-.58.22-1.24.11-1.72-.283-.305-.25-.724-.32-1.094-.18-.18.07-.34.183-.465.334L11.288 24.744c-.387.472-.318 1.172.154 1.56.36.295.583.712.63 1.175.045.462-.093.915-.388 1.274-.387.473-.32 1.172.154 1.56l2.235 1.834 2.113 3.886c.19.35.554.57.95.58.196.006.39-.04.56-.134.27-.146.574-.22.88-.212.624.016 1.196.366 1.494.914.19.348.554.57.95.58.196.006.39-.04.56-.134l15.654-8.513c.54-.293.74-.97.446-1.51-.223-.41-.273-.884-.14-1.332.13-.448.43-.818.84-1.04.54-.295.74-.972.447-1.512zm-26.41 5.637c.457-.556.67-1.256.6-1.972-.072-.715-.417-1.36-.972-1.816-.068-.056-.078-.156-.022-.224L23.27 11.64c.055-.068.157-.076.222-.023.74.608 1.76.776 2.657.438.44-.165.83-.446 1.13-.81.054-.07.157-.076.223-.023l5.384 4.418c.068.056.078.156.022.223-.457.556-.67 1.256-.598 1.97.07.717.415 1.362.97 1.817.068.056.078.156.023.224L22.058 33.58c-.055.068-.157.076-.223.022-.74-.608-1.76-.775-2.657-.437-.44.165-.83.446-1.13.81-.055.068-.157.076-.223.023L12.44 29.58c-.068-.056-.078-.156-.022-.223zm21.522-2.97c.08.15.025.34-.126.423l-8.978 4.882 7.21-8.787 1.893 3.482zm3.985-1.994c-.635.345-1.097.917-1.3 1.61-.206.692-.13 1.424.216 2.058.043.078.015.175-.062.217L21.125 36.79c-.077.042-.175.01-.216-.064-.462-.847-1.346-1.388-2.31-1.412-.472-.012-.942.1-1.36.328-.076.043-.174.01-.215-.064l-.99-1.82 1.188.975c.305.25.724.32 1.094.18.18-.07.342-.184.465-.334.194-.237.447-.42.73-.526.582-.22 1.24-.11 1.72.283.306.25.725.32 1.095.18.18-.068.342-.183.466-.333l.433-.53L34.27 27.65c.298-.163.514-.43.61-.755.096-.324.06-.666-.102-.963L32.7 22.11l1.34-1.633c.387-.473.318-1.172-.154-1.56-.214-.175-.372-.396-.48-.64.357-.036.705-.14 1.023-.313.076-.042.174-.01.215.064l3.344 6.15c.04.077.012.173-.065.215z"/></g></g></svg>