<svg width="24" height="24" viewBox="0 0 24 24" xmlns="http://www.w3.org/2000/svg"><g transform="translate(-12 -12)" fill="none" fill-rule="evenodd"><circle stroke="currentColor" stroke-width="2" cx="24" cy="24" r="24"/><g fill="currentColor"><path d="M22.005 24.185c-.41 0-.74.33-.74.74v6.93c0 .41.33.74.74.74s.74-.33.74-.74v-6.93c0-.41-.33-.74-.74-.74zM26.036 24.185c-.41 0-.74.33-.74.74v6.93c0 .41.33.74.74.74s.74-.33.74-.74v-6.93c0-.41-.33-.74-.74-.74z"/><path d="M35.828 29.39l-.502-3.564c-.028-.254-.153-.9-.73-1.393-.33-.282-.753-.46-1.192-.498H31.62v-1.486c1.182-.843 1.958-2.223 1.958-3.783 0-2.56-2.082-4.642-4.643-4.642-.518 0-1.023.085-1.506.253-1.028-1.303-2.577-2.063-4.258-2.063-2.048 0-3.887 1.13-4.817 2.92-2.197.067-3.965 1.874-3.965 4.087 0 1.503.82 2.817 2.03 3.526v11.12c0 .864.845 1.565 1.887 1.565h11.426c1.042 0 1.886-.7 1.886-1.566v-2.383l2.498-.01h.032c.226-.01.802-.09 1.25-.59.543-.605.46-1.32.428-1.494zm-5.69 4.095c0 .244-.14.47-.48.47H18.423c-.29 0-.523-.114-.523-.46v-10.23c.19.026.382.045.578.045.852 0 1.674-.265 2.362-.755.73.348 1.525.53 2.332.53 1.02 0 1.994-.278 2.85-.81.82.664 1.852 1.035 2.913 1.035.417 0 .82-.06 1.203-.164v10.34zM28.936 21.83c-.883 0-1.702-.36-2.31-1.01l-.465-.498-.534.425c-.708.56-1.556.857-2.454.857-.713 0-1.416-.196-2.034-.568l-.478-.29-.41.382c-.484.452-1.115.7-1.773.7-1.437 0-2.607-1.168-2.607-2.605 0-1.438 1.17-2.607 2.607-2.607.09 0 .18.005.268.014l.553.057.208-.516c.608-1.502 2.046-2.473 3.665-2.473 1.38 0 2.637.704 3.365 1.885l.358.582.61-.31c.45-.23.93-.347 1.43-.347 1.745 0 3.163 1.418 3.163 3.16 0 1.744-1.417 3.162-3.16 3.162zm5.23 7.934c-.202.202-.434.23-.512.23l-2.034.01v-4.59h1.68c.084.01.217.044.335.145.177.15.213.363.222.448l.467 3.318c0 .007.044.236-.158.438z"/></g></g></svg>