<svg width="24" height="26" viewBox="0 0 24 26" xmlns="http://www.w3.org/2000/svg"><g transform="translate(-12 -9)" fill="none" fill-rule="evenodd"><circle stroke="currentColor" stroke-width="2" cx="24" cy="24" r="24"/><g fill="currentColor"><path d="M23.7 34.833h-7c-.367 0-.667-.3-.667-.666V18.8c0-1.2.834-2.2 1.934-2.5V9.833c0-.366.3-.666.666-.666h.934c.366 0 .666.3.666.666 0 .367-.3.667-.666.667H19.3v6.4c0 .367-.3.667-.667.667-.7 0-1.266.566-1.266 1.233v14.7h5.666V18.8c0-.7-.566-1.233-1.233-1.233-.367 0-.7-.3-.7-.667V9.833c0-.366.3-.666.667-.666.366 0 .666.3.666.666v6.5c1.1.3 1.934 1.3 1.934 2.5V34.2c0 .333-.3.633-.667.633z"/><path d="M21.633 21.267H16.7c-.367 0-.667-.3-.667-.667 0-.367.3-.667.667-.667h4.933c.367 0 .667.3.667.667 0 .367-.3.667-.667.667zM30.1 30.267c-2.2 0-3.733-.7-4.567-2.067-1.466-2.467-.033-6.467 1.067-8.433.167-.334.567-.434.9-.267.333.167.433.567.267.9-.867 1.6-2.234 5.167-1.067 7.133.567.934 1.7 1.434 3.433 1.434 1.7 0 2.867-.467 3.434-1.434 1.166-1.966-.2-5.5-1.067-7.133-.167-.333-.067-.733.267-.9.333-.167.733-.067.9.267 1.066 1.966 2.533 5.966 1.066 8.433-.866 1.367-2.4 2.067-4.633 2.067z"/><path d="M30.1 34.833c-.367 0-.667-.3-.667-.666V29.6c0-.367.3-.667.667-.667.367 0 .667.3.667.667v4.567c0 .366-.3.666-.667.666z"/><path d="M32.4 34.833h-4.6c-.367 0-.667-.3-.667-.666 0-.367.3-.667.667-.667h4.6c.367 0 .667.3.667.667 0 .366-.3.666-.667.666zM31.9 23.9h-5.967c-.366 0-.666-.3-.666-.667 0-.366.3-.666.666-.666H31.9c.367 0 .667.3.667.666 0 .367-.3.667-.667.667zM21.633 30.267H16.7c-.367 0-.667-.3-.667-.667 0-.367.3-.667.667-.667h4.933c.367 0 .667.3.667.667 0 .367-.3.667-.667.667z"/></g></g></svg>