<svg width="26" height="26" viewBox="0 0 26 26" xmlns="http://www.w3.org/2000/svg"><g transform="translate(-11 -11)" fill="none" fill-rule="evenodd"><circle stroke="currentColor" stroke-width="2" cx="24" cy="24" r="24"/><g fill="currentColor"><path d="M22.917 25.625H17.5v-5.417h5.417v5.417zm-4.334-1.083h3.25v-3.25h-3.25v3.25zM30.5 25.625h-5.417v-5.417H30.5v5.417zm-4.333-1.083h3.25v-3.25h-3.25v3.25z"/><path d="M33.208 34.292h-7.583v-5.417h-3.25v5.417h-7.583v-15.71h1.083V33.21h5.417v-5.416h5.416v5.416h5.417V18.583h1.083v15.71z"/><path d="M35.267 22.294L24 13.844l-11.267 8.45-1.3-1.734L24 11.135l12.567 9.425-1.3 1.734zM12.625 34.292h22.75v2.167h-22.75z"/><path d="M19.667 20.75h1.083v4.333h-1.083zM27.25 20.75h1.083v4.333H27.25zM24.542 31.042h1.083v1.083h-1.083z"/></g></g></svg>