<svg width="18" height="26" viewBox="0 0 18 26" xmlns="http://www.w3.org/2000/svg"><g transform="translate(-16 -11)" fill="none" fill-rule="evenodd"><circle stroke="currentColor" stroke-width="2" cx="24" cy="24" r="24"/><path d="M18.92 26.79c.11.016.227.03.34.044-.474.387-.843.87-1.017 1.395l-.01.027-2.212 8.043c-.08.295.093.6.388.68.05.013.098.02.147.02.243 0 .466-.162.533-.407l2.21-8.028c.256-.747 1.21-1.406 2.137-1.513-.15.224-.27.474-.335.74l-1.197 5.83c-.046.224.1.443.323.49.028.005.056.008.084.008.193 0 .366-.136.406-.332l1.194-5.813c.087-.353.34-.687.634-.887.704.027 1.437.042 2.19.042.756 0 1.49-.015 2.193-.042.294.2.545.528.63.87l1.197 5.83c.04.196.213.332.406.332.028 0 .056-.003.084-.01.225-.045.37-.264.323-.49l-1.2-5.845c-.065-.26-.18-.503-.33-.722.926.107 1.88.766 2.136 1.512l2.21 8.028c.067.246.29.407.532.407.05 0 .098-.006.147-.02.295-.08.468-.385.387-.68l-2.215-8.043-.008-.028c-.175-.526-.543-1.008-1.02-1.396.116-.015.233-.028.342-.044 1.975-.284 2.82-.67 2.91-1.33.11-.78-.867-1.17-1.837-1.446-2.995-.855-3.438-1.423-3.49-1.628-.073-.295.565-.91 1.128-1.455.702-.677 1.575-1.522 2.11-2.594 1.06-2.13.632-3.628.086-4.51C30.164 11.74 27.028 11 24.736 11c-2.294 0-5.43.74-6.722 2.827-.546.88-.974 2.38.087 4.51.47.942 1.177 1.713 1.802 2.392.602.655 1.225 1.332 1.118 1.71-.076.27-.59.836-3.174 1.574-.97.277-1.947.665-1.838 1.447.093.66.937 1.046 2.913 1.33zm-.77-1.712c2.497-.713 3.674-1.412 3.935-2.34.274-.97-.487-1.798-1.368-2.757-.575-.625-1.227-1.334-1.626-2.137-.668-1.344-.714-2.5-.136-3.433.986-1.59 3.614-2.304 5.78-2.304 2.17 0 4.797.713 5.782 2.304.578.934.532 2.09-.137 3.433-.45.902-1.214 1.64-1.888 2.293-.89.86-1.66 1.604-1.43 2.52.234.934 1.428 1.614 4.258 2.422.352.1.595.19.76.26-.64.225-2.057.47-4.175.596-.042 0-.084-.005-.126-.005-.05 0-.096.007-.14.02-.862.046-1.83.074-2.905.074-1.076 0-2.043-.03-2.904-.075-.044-.013-.09-.02-.14-.02-.04 0-.083.003-.125.004-2.118-.127-3.536-.37-4.175-.595.165-.073.408-.162.76-.262z" fill="currentColor"/></g></svg>