<svg width="22" height="24" viewBox="0 0 22 24" xmlns="http://www.w3.org/2000/svg"><g transform="translate(-13 -12)" fill="none" fill-rule="evenodd"><circle stroke="currentColor" stroke-width="2" cx="24" cy="24" r="24"/><g fill="currentColor"><path d="M33.73 20.693c-.09-.11-.183-.223-.274-.34-.088-.113-.166-.442-.235-.733-.136-.576-.306-1.293-.806-1.912-.394-.487-.936-.807-1.415-1.088-.384-.226-.78-.46-.918-.69-.266-.444-.2-.902-.13-1.388.087-.61.25-1.746-1.077-2.164-.477-.15-.896-.223-1.282-.223-1.048 0-1.677.54-2.285 1.063-.49.42-1.044.897-1.968 1.25-.44.17-.938.3-1.466.44-1.27.34-2.712.72-3.7 1.764-.702.74-1.05 1.536-1.33 2.176-.16.362-.31.704-.447.833-.308.287-.607.488-.896.683-.74.498-1.508 1.014-1.463 2.506.02.615.48.964 1.372 1.04-.163.305-.215.506-.23.58-.162.797.02 1.59.497 2.174.478.584 1.22.92 2.032.92h13.494c.368 0 .658.12.816.338.16.218.184.53.07.88l-1.326 4.09c-.288.886-1.358 1.664-2.29 1.664h-8.036c-.957 0-2.127-.773-2.503-1.654l-1.304-3.06c-.156-.367-.58-.537-.946-.38-.366.155-.537.578-.38.945l1.304 3.06c.606 1.42 2.288 2.532 3.83 2.532h8.036c1.57 0 3.178-1.17 3.662-2.663l1.326-4.09c.256-.788.156-1.58-.275-2.173-.033-.046-.07-.087-.108-.13.098-.086.192-.178.276-.28.477-.584.66-1.376.497-2.174-.01-.06-.065-.262-.228-.573.098-.05.188-.107.27-.175 1.392-1.146.417-2.338-.165-3.05zm-17.424.866c.304-.205.682-.46 1.073-.823.356-.332.564-.808.784-1.31.248-.565.528-1.205 1.057-1.764.707-.745 1.884-1.057 3.023-1.36.542-.143 1.1-.29 1.612-.487 1.16-.444 1.843-1.032 2.393-1.504.576-.495.852-.714 1.345-.714.236 0 .514.05.848.156.07.022.11.042.128.053.017.1-.02.356-.045.53-.088.612-.208 1.45.32 2.335.327.545.885.873 1.424 1.19.39.23.795.47 1.024.752.296.365.413.86.527 1.34.113.475.22.924.5 1.285l.296.367c.21.255.558.68.547.817 0 0-.02.07-.174.2-.004 0-.092.05-.402.05h-.028c-.096-.025-.197-.03-.296-.014-.406-.033-.9-.116-1.42-.204-.696-.118-1.417-.24-2.13-.28-.26-.016-.505-.024-.73-.024-.844 0-1.36.105-1.856.207-.523.106-1.017.208-1.978.208h-.078c-.975-.006-1.5-.114-2.008-.218-.48-.1-.978-.2-1.754-.2-.263 0-.54.01-.85.034-.498.037-1.012.09-1.51.14-.814.082-1.583.16-2.14.16-.132 0-.234-.005-.313-.01.06-.41.29-.563.813-.915zm10.85 4.58h-9.447c-.385 0-.71-.138-.916-.39-.206-.25-.277-.597-.206-.948 0-.003.072-.25.396-.68.062-.083.102-.174.124-.268.316-.028.646-.06.984-.096.488-.05.994-.1 1.472-.136.273-.02.516-.03.742-.03.63 0 1.017.078 1.464.17.55.113 1.173.24 2.29.248h.086c1.107 0 1.723-.126 2.267-.238.466-.095.87-.178 1.567-.178.197 0 .414.007.645.02.635.038 1.316.153 1.975.264.5.085.98.164 1.42.207.335.437.418.692.42.692.076.376.005.722-.2.973-.207.252-.532.39-.916.39h-4.17z"/><path d="M26.81 32.718V29.63c0-.398-.324-.72-.722-.72-.4 0-.722.322-.722.72v3.088c0 .4.323.722.722.722.398 0 .72-.323.72-.722zM23.667 32.718V29.63c0-.398-.323-.72-.72-.72-.4 0-.722.322-.722.72v3.088c0 .4.323.722.72.722.4 0 .722-.323.722-.722zM28.872 33.44c.36 0 .673-.27.716-.638l.357-3.09c.046-.395-.237-.752-.633-.798-.393-.045-.753.238-.8.633l-.357 3.09c-.046.394.238.752.633.798.028.003.056.005.084.005zM20.162 33.44c.027 0 .055-.002.083-.005.396-.046.68-.404.634-.8l-.36-3.088c-.045-.395-.404-.678-.798-.633-.396.046-.68.403-.634.8l.358 3.088c.042.367.354.638.716.638z"/></g></g></svg>