<svg width="24" height="25" viewBox="0 0 24 25" xmlns="http://www.w3.org/2000/svg"><g transform="translate(-12 -11)" fill="none" fill-rule="evenodd"><circle stroke="currentColor" stroke-width="2" cx="24" cy="24" r="24"/><path d="M34.848 12.6l-2.504-1.243c-.042-.02-.084-.038-.13-.05l-.896-.27c-.15-.046-.307-.05-.458-.008l-.952.257c-.143.04-.273.114-.376.22l-.763.775c-.09.09-.156.198-.196.317l-.994 2.942h-9.386c-1.42 5.26-2.54 16.45 2.58 19.802h6.577c5.124-3.353 4.002-14.54 2.582-19.802h-.597l.753-2.23.472-.477.505-.137.602.18 2.44 1.213c.41.203.912.037 1.116-.375.204-.412.036-.91-.375-1.116zm-15.35 4.606h7.519l-3.16 9.348h-5.134c-.208-3.087.152-6.54.776-9.348zm7.31 16.474h-5.49c-1.322-1.1-2.076-3.1-2.42-5.462h4.398l-1.166 3.45c-.147.436.087.908.522 1.055.088.03.178.044.266.044.347 0 .67-.218.788-.566l1.346-3.982h4.178c-.345 2.363-1.1 4.363-2.422 5.462zm2.596-7.126h-3.79l3.07-9.085c.59 2.758.92 6.092.72 9.084z" fill="currentColor"/></g></svg>