<svg width="20" height="24" viewBox="0 0 20 24" xmlns="http://www.w3.org/2000/svg"><g transform="translate(-14 -12)" fill="none" fill-rule="evenodd"><circle stroke="currentColor" stroke-width="2" cx="24" cy="24" r="24"/><g fill="currentColor"><path d="M32.41 16.486H18.097c-.768 0-1.39-.626-1.39-1.39 0-.768.622-1.39 1.39-1.39H32.41c.473 0 .854-.384.854-.854S32.884 12 32.41 12H18.097C16.386 12 15 13.387 15 15.096V32.64c0 1.706 1.384 3.094 3.093 3.097H32.41c.473 0 .854-.384.854-.853V17.34c0-.473-.38-.854-.853-.854zM18.705 34.03h-.61c-.768-.002-1.388-.625-1.388-1.39V17.863c.418.21.89.33 1.39.33.236 0 .452-.1.608-.257V34.03zm12.855 0H19.84V18.19h11.72v15.84z"/><path d="M24.84 17.538v.256h-.61c.237 0 .453-.1.61-.256zM32.653 15.692H18.338c-.314 0-.57-.31-.57-.692 0-.382.256-.692.57-.692h14.315c.314 0 .57.31.57.692 0 .382-.256.692-.57.692z"/></g></g></svg>