<svg width="28" height="20" viewBox="0 0 28 20" xmlns="http://www.w3.org/2000/svg"><g transform="translate(-11 -15)" fill="none" fill-rule="evenodd"><circle stroke="currentColor" stroke-width="2" cx="24" cy="24" r="24"/><g fill="currentColor"><path d="M25.706 34.13h-2.108c-.302 0-.547-.246-.547-.548v-1.58c-1.287-.125-2.55-.487-3.39-.982-.207-.124-.31-.37-.25-.605l.645-2.57c.042-.166.158-.303.314-.37.155-.068.334-.06.483.025.6.335 1.825.897 3.304.897.356 0 1.518-.06 1.518-.816 0-.38-.23-.814-1.91-1.393-1.976-.68-4.242-1.81-4.242-4.54 0-2.107 1.38-3.74 3.635-4.346v-1.654c0-.302.245-.547.547-.547h2.108c.303 0 .548.244.548.546v1.424c1.078.097 2.003.343 2.816.746.23.114.35.374.288.623l-.624 2.482c-.04.156-.145.287-.29.358-.143.07-.31.075-.458.01l-.166-.072c-.566-.25-1.42-.63-2.715-.63-.486 0-1.302.09-1.302.685 0 .375.625.762 2.23 1.38 2.76.995 3.944 2.378 3.944 4.62 0 2.198-1.487 3.928-3.83 4.51v1.8c0 .3-.244.546-.546.546zm-1.56-1.096h1.013V31.34c0-.265.19-.492.45-.538 2.083-.37 3.377-1.722 3.377-3.528 0-1.46-.55-2.63-3.23-3.596-1.672-.643-2.943-1.226-2.943-2.405 0-.86.63-1.78 2.397-1.78 1.21 0 2.103.286 2.725.54l.355-1.415c-.713-.286-1.537-.447-2.5-.49-.294-.014-.524-.255-.524-.548v-1.387h-1.014v1.542c0 .26-.184.485-.44.536-2 .402-3.195 1.664-3.195 3.377 0 1.612 1.047 2.66 3.503 3.505 1.376.475 2.65 1.098 2.65 2.43 0 1.16-1.026 1.91-2.613 1.91-1.305 0-2.434-.37-3.206-.72l-.374 1.492c.804.372 1.95.633 3.047.684.292.013.522.253.522.546v1.54zM38.176 22.73h-7.7c-.302 0-.547-.245-.547-.547 0-.302.244-.547.546-.547h7.7c.302 0 .547.245.547.547 0 .302-.245.547-.547.547zM17.37 22.73h-5.823c-.302 0-.547-.245-.547-.547 0-.302.245-.547.547-.547h5.822c.3 0 .546.245.546.547 0 .302-.245.547-.547.547zM38.176 25.018h-6.82c-.302 0-.547-.245-.547-.547 0-.3.244-.546.546-.546h6.82c.302 0 .547.245.547.547 0 .303-.245.548-.547.548zM17.957 25.018h-6.41c-.302 0-.547-.245-.547-.547 0-.3.245-.546.547-.546h6.41c.302 0 .547.245.547.547 0 .303-.245.548-.547.548zM38.176 27.307h-5.93c-.302 0-.547-.245-.547-.548 0-.303.244-.548.546-.548h5.93c.302 0 .547.245.547.547 0 .302-.245.547-.547.547zM18.258 27.307h-6.71c-.303 0-.548-.245-.548-.548 0-.303.245-.548.547-.548h6.71c.303 0 .548.245.548.547 0 .302-.245.547-.547.547z"/></g></g></svg>