<svg width="26" height="24" viewBox="0 0 26 24" xmlns="http://www.w3.org/2000/svg"><g transform="translate(-11 -13)" fill="none" fill-rule="evenodd"><circle stroke="currentColor" stroke-width="2" cx="24" cy="24" r="24"/><g fill="currentColor"><path d="M18.89 28.802c-4.336 0-7.864-3.528-7.864-7.864 0-4.335 3.528-7.865 7.864-7.865 4.337 0 7.865 3.53 7.865 7.865 0 4.336-3.528 7.864-7.865 7.864zm-.13-14.73c-3.713 0-6.734 3.022-6.734 6.735 0 3.714 3.02 6.734 6.735 6.734 3.715 0 6.736-3.02 6.736-6.733 0-3.713-3.02-6.734-6.735-6.734z"/><path d="M29.11 28.802c-4.337 0-7.865-3.528-7.865-7.864 0-4.335 3.528-7.865 7.865-7.865 4.336 0 7.864 3.53 7.864 7.865 0 4.336-3.53 7.864-7.864 7.864zm0-14.6c-3.714 0-6.734 3.02-6.734 6.735 0 3.713 3.02 6.734 6.734 6.734 3.715 0 6.734-3.02 6.734-6.733 0-3.714-3.02-6.734-6.734-6.734z"/><path d="M24 36.102c-4.336 0-7.864-3.53-7.864-7.865 0-4.335 3.528-7.864 7.864-7.864s7.864 3.53 7.864 7.864c0 4.335-3.53 7.865-7.864 7.865zm0-14.6c-3.713 0-6.734 3.022-6.734 6.734 0 3.713 3.02 6.736 6.734 6.736 3.713 0 6.734-3.02 6.734-6.734 0-3.713-3.022-6.736-6.734-6.736z"/></g></g></svg>