<svg width="26" height="26" viewBox="0 0 26 26" xmlns="http://www.w3.org/2000/svg"><g transform="translate(-11 -11)" fill="none" fill-rule="evenodd"><circle stroke="currentColor" stroke-width="2" cx="24" cy="24" r="24"/><path d="M17.697 35.503c.598.316 1.097.493 1.44.616 4.713 1.188 8.966.82 12.688-2.28 3.643-3.083 5.37-7.97 4.47-12.66-.247-1.29-.81-2.8-1.47-3.954-.333-.583-1.06-1.593-1.493-2.08-.724-.808-1.764-1.687-2.684-2.267-2.206-1.39-5.01-2.066-7.623-1.836-3.556.313-6.893 2.26-9.1 4.907-2.01 2.406-3.074 5.785-2.908 8.935.064 1.22.19 1.946.533 3.072.488 1.606 1.016 2.676 1.954 3.954 1.205 1.644 2.336 2.613 4.193 3.593zm-1.31-1.34c-.166-.088-.36-.224-.607-.424-1.053-.913-1.898-1.968-2.498-3.08 0 0 .29-1.833.467-2.736 1.034.078 2.1.303 3.048.434.19.025.368.05.5.07.064.01.118.02.155.027l.024.005c.056.04.2.17.385.36.19.196.427.454.686.75.52.588 1.13 1.323 1.66 2.004l.483.62c-.088.924-.312 1.796-.3 2.62-1.258-.177-2.308-.373-3.552-.515-.142-.01-.45-.138-.45-.138zm4.462.725h-.004.003zm.004-.033c-.01-.892.083-1.685.31-2.532.052-.14.083-.16.204-.235.094-.058.31-.158.596-.28.286-.12.643-.26 1.025-.403.763-.285 1.64-.586 2.305-.78l.67-.197 3.975 1.47s-.36 1.954-.646 2.94c-.044.127-.058.14-.107.187-1.695.893-2.85 1.34-4.373 1.334-1.037-.295-2.12-.67-3.078-1.058-.32-.12-.588-.27-.88-.447h-.002zm-7.194-7.457l-1.205-4.745s1.754-2.687 2.636-4.027l.17.013c1.202.09 2.295.19 2.69.243.133.018.272.04.388.06.116.023.218.047.24.055.036.012.054.02.06.022.006.003 0-.003.005.003 0-.002.003.004.004.013l.01.038c.008.033.018.082.03.147.38 1.695.738 3.043 1.154 4.637l-.77 1.327c-.415.714-.79 1.347-1.082 1.83-.292.48-.51.82-.575.904l-.03.035c-.004.004-.005.004-.018.007-.016.005-.08.01-.19 0h-.002c-1.206-.19-3.516-.564-3.516-.564l.003.002zm-2.088-4.817c.003-.01.003-.02.005-.035.02-.11.055-.28.084-.42.072-.333.124-.668.224-.988.37-1.187.778-2.376 1.39-3.455.473-.835 1.164-1.66 1.744-2.3.284-.312.447-.48.552-.56.107-.08.14-.08.27-.085h.01l-.008.018c-.068.14-.166.33-.277.54-.36.684-.434.86-.573 1.38-.082.31-.153.637-.2.92-.047.278-.072.498-.06.65l-.003.004v.008c.003.05-.017.084-.017.084-.885 1.4-1.833 2.76-2.7 4.173-.144.03-.305.05-.443.066h.002zm14.533 7.397c-.003-1.624-.556-4.675-.556-4.675l.018-.022c1.272-1.236 3.658-3.767 3.658-3.767l.26.054c.618.128 1.19.293 1.966.572.417.148 1.003.386 1.285.518l.453.214c.135 1.743.445 4.806.445 4.806-1.012 1.432-2.412 2.767-3.547 3.75l-3.983-1.45zm-5.855-6.305s-.885-3.303-1.162-4.683l-.016-.12.694-.704c.464-.47 1.154-1.144 1.74-1.706.292-.28.558-.533.756-.717.102-.098.202-.185.306-.277l4.826 1.133s1.256 3.287 1.446 4.67c0 0-1.906 2.192-3.032 3.215-.286.26-.518.494-.518.494-1.102-.14-3.3-.726-3.3-.726s-1.18-.326-1.74-.582zm13.908 4.093c-.242-1.587-.37-3.425-.55-4.996l.196-1.118c.106-.606.228-1.267.332-1.805.104-.54.196-.972.223-1.065l.01-.04c.22-.054.44-.076.65-.1l.223.64c.934 2.474.972 5.153.41 7.434-.132.535-.27 1.003-.426 1.503-.02.065-.032.09-.044.12-.352-.192-.72-.38-1.026-.576zM16.422 14.162c.238-.185.526-.402.76-.567.946-.67 1.416-.898 2.822-1.363.34-.113.75-.238.926-.285l-.063.11-.216.376-.49.166c-.654.22-2.212.884-3.22 1.366-.304.146-.4.164-.518.196zm6.088.817l-.27-.504c-.19-.36-.413-.754-.61-1.084-.194-.33-.354-.586-.45-.704l-.056-.068.144-.27c.19-.356.28-.514.37-.58.087-.068.23-.096.578-.15 2.087-.327 3.73-.152 6.084.65.797.318 2.2 1.03 2.2 1.03l.135 1.54s-1.78.982-2.716 1.285c-.142.045-.252.053-.252.053s-3.476-.882-5.16-1.2h.002zm11.83 3.305c-1.054-1.236-3.265-3.347-3.265-3.347l-.003-.004s-.04-.812-.057-1.217c0 0 .068.052.134.108 1.68 1.203 2.937 2.825 3.558 4.227.026.045.048.096.07.137-.144.043-.442.092-.442.092l.003.003z" fill="currentColor"/></g></svg>