<svg width="26" height="19" viewBox="0 0 26 19" xmlns="http://www.w3.org/2000/svg"><g transform="translate(-11 -15)" fill="none" fill-rule="evenodd"><circle stroke="currentColor" stroke-width="2" cx="24" cy="24" r="24"/><g fill="currentColor"><path d="M14.57 15h1.02v18.863h-1.02zM32.412 15h1.02v18.863h-1.02z"/><path d="M11 27.235h25.49v1.02H11z"/><path d="M33.43 30.804h-1.018c0-1.127.337-2.017 1-2.645 1.053-.998 2.534-.927 2.596-.924l-.056 1.018c-.008 0-1.117-.043-1.845.65-.448.43-.676 1.067-.676 1.9zM15.588 30.804h-1.02c0-.836-.23-1.476-.68-1.905-.726-.687-1.83-.647-1.84-.646l-.056-1.018c.06-.004 1.543-.074 2.595.923.664.627 1 1.517 1 2.644zM23.697 24.194c-1.3 0-4.418-.235-6.67-2.306-1.63-1.5-2.458-3.647-2.458-6.378h1.018c0 2.434.717 4.328 2.13 5.628 2.524 2.323 6.455 2.024 6.495 2.02l.084 1.016c-.038.004-.254.02-.6.02z"/><path d="M24.303 24.194c-.346 0-.562-.016-.6-.02l.084-1.016c.04.004 3.985.294 6.5-2.025 1.41-1.3 2.125-3.192 2.125-5.623h1.02c0 2.73-.828 4.877-2.46 6.378-2.25 2.07-5.37 2.306-6.67 2.306z"/><path d="M36.235 22.883c-2.537-1.455-3.823-3.936-3.823-7.373h1.02c0 3.045 1.114 5.228 3.31 6.49l-.507.883zM11.764 22.373l-.508-.884c2.198-1.26 3.312-3.444 3.312-6.49h1.02c0 3.437-1.287 5.918-3.824 7.373zM18.137 22.137h1.02v5.608h-1.02zM28.843 22.137h1.02v5.608h-1.02zM21.706 23.667h1.02v3.57h-1.02zM25.275 23.667h1.02v3.57h-1.02z"/></g></g></svg>