<svg width="28" height="25" viewBox="0 0 28 25" xmlns="http://www.w3.org/2000/svg"><g transform="translate(-10 -11)" fill="none" fill-rule="evenodd"><circle stroke="currentColor" stroke-width="2" cx="24" cy="24" r="24"/><path d="M32.357 16.616c-4.408-4.4-9.51-5.37-11.186-5.616C20.456 13.327 14 35.12 14 35.12l24-7.29c-.247-1.676-1.22-6.8-5.643-11.214zm-1.31 1.312c2.954 2.947 4.248 6.268 4.815 8.613l-1.276.39c0-.024 0-.045.003-.068.025-.482.058-1.082-.212-1.93-.226-.707-.498-1.002-.91-1.448-.256-.28-.608-.66-1.143-1.346-.56-.715-.75-1.118-.935-1.508-.203-.428-.412-.87-.978-1.472-.72-.767-1.313-1.005-1.835-1.217-.295-.118-.574-.23-.926-.456-.352-.225-.6-.493-.89-.8-.455-.49-1.02-1.095-2.086-1.597-.723-.34-1.252-.482-1.677-.596-.42-.11-.618-.173-.838-.338.108-.365.21-.71.302-1.014 2.338.566 5.645 1.855 8.585 4.79zm-10.53 6.45c.527.526.527 1.383 0 1.91-.527.526-1.384.526-1.91 0-.016-.016-.026-.034-.04-.05l.654-2.207c.45-.116.946-.004 1.297.347zm-2.51 3.74c1.22.68 2.786.514 3.82-.52 1.25-1.25 1.25-3.282 0-4.532-.57-.57-1.3-.872-2.046-.92.645-2.17 1.272-4.28 1.8-6.05.31.14.61.23.904.308.386.103.784.21 1.347.475.72.338 1.075.717 1.485 1.155.33.353.707.756 1.27 1.116.505.326.917.493 1.25.627.443.18.707.284 1.135.74.352.373.457.594.63.96.21.442.47.992 1.165 1.88.584.748.984 1.182 1.248 1.47.35.377.386.417.48.708.158.5.142.8.12 1.22-.014.228-.027.483-.01.776l-2.24.682c.662-1.216.493-2.768-.534-3.796-1.25-1.25-3.283-1.25-4.533 0-1.25 1.25-1.25 3.283 0 4.532.237.238.508.415.79.562l-9.332 2.835 1.253-4.227zm8.6-2.39c.527-.527 1.384-.527 1.91 0 .528.526.528 1.383 0 1.91-.526.527-1.383.527-1.91 0-.527-.527-.527-1.384 0-1.91z" fill="currentColor"/></g></svg>