<svg width="24" height="29" viewBox="0 0 24 29" xmlns="http://www.w3.org/2000/svg"><g transform="translate(-12 -10)" fill="none" fill-rule="evenodd"><circle stroke="currentColor" stroke-width="2" cx="24" cy="24" r="24"/><path d="M36 24.37c0-1.852-.465-3.686-1.34-5.323.005-.06.013-.12.015-.182 0-1.57-.606-2.73-1.14-3.754-.586-1.124-.912-1.82-.642-2.686.043-.137.237-.454-.236-1.056-.473-.602-.97-.305-1.14-.218-1.2.62-2.163 1.506-2.9 2.5-1.462-.59-3.01-.89-4.617-.89-6.617 0-12 5.21-12 11.61 0 6.403 5.383 11.612 12 11.612.87 0 3.52 0 3.52-2.58 0-1.218-.96-1.782-1.66-2.194-.754-.442-1.06-.672-1.06-1.172 0-.337 0-1.36 1.406-1.36h2.1c.173 3.477.502 8.517.52 8.804.028.42.377.747.798.747h2c.42 0 .77-.326.796-.746.02-.29.362-5.502.532-8.996C34.728 27.94 36 26.278 36 24.37zm-4.792-11.126c.06.973.5 1.822.91 2.606.47.903.958 1.836.958 2.992-.04 1.45-1.037 2.505-2.37 2.505-.652 0-1.243-.245-1.662-.69-.478-.508-.702-1.245-.65-2.133.09-1.452.92-3.784 2.814-5.28zm.223 11.458c-.23.074-.473.116-.722.116-.313 0-.612-.06-.888-.172.024-.72.065-1.34.1-1.777.255.048.52.074.788.074.213 0 .42-.02.623-.053.037.444.078 1.067.1 1.812zm-5.224 2.374c-1.386 0-3.005.776-3.005 2.96 0 1.465 1.114 2.118 1.85 2.55.666.39.873.555.873.817 0 .46 0 .98-1.923.98-5.735 0-10.4-4.49-10.4-10.012 0-5.52 4.665-10.012 10.4-10.012 1.305 0 2.565.23 3.76.677-.214.422-.39.85-.532 1.276-.41-.27-.898-.427-1.424-.427-1.43 0-2.593 1.163-2.593 2.592 0 1.43 1.164 2.593 2.594 2.593.5 0 .967-.145 1.364-.392.206.462.467.815.712 1.075.152.163.32.306.495.437-.05.505-.174 1.918-.174 3.626 0 .293.013.732.034 1.263h-2.028zm.593-8.6c-.002.55-.448.994-.996.994s-.994-.446-.994-.994.446-.995.994-.995.994.447.995.995v.002zm3.573 18.153c-.134-2.104-.507-8.06-.565-10.315.292.066.593.102.9.102.247 0 .49-.024.73-.068-.06 2.31-.43 8.192-.564 10.28h-.5zm2.654-9.906c.012-.37.02-.68.02-.91 0-1.65-.11-2.96-.165-3.527.394-.265.736-.606 1.013-1.002.333.992.507 2.036.507 3.086 0 .996-.55 1.885-1.375 2.354zm-15.493-3.437c-1.43 0-2.593 1.163-2.593 2.593s1.164 2.593 2.594 2.593 2.593-1.163 2.593-2.593-1.163-2.593-2.593-2.593zm0 3.588c-.55 0-.995-.446-.995-.995 0-.548.445-.994.994-.994.548 0 .994.446.994.994 0 .55-.446.995-.994.995zm2.033-9.618c-1.43 0-2.592 1.163-2.592 2.592 0 1.43 1.163 2.592 2.592 2.592 1.43 0 2.593-1.163 2.593-2.593s-1.163-2.593-2.593-2.593zm0 3.587c-.548 0-.994-.446-.994-.994 0-.55.446-.995.994-.995.55 0 .995.447.995.995s-.446.994-.995.994z" fill="currentColor"/></g></svg>