<svg width="28" height="17" viewBox="0 0 28 17" xmlns="http://www.w3.org/2000/svg"><g transform="translate(-10 -16)" fill="none" fill-rule="evenodd"><circle stroke="currentColor" stroke-width="2" cx="24" cy="24" r="24"/><g fill="currentColor"><path d="M11.496 26.524v1.103c0 .385.165.826.496 1.157.33.33.716.496 1.157.496h1.377c.385 0 .826-.166 1.157-.496.275-.276.44-.606.44-.992l-4.628-1.268zM23.618 24.32c.276-1.212.827-2.314 1.543-3.25-.936.165-2.313.22-4.242.22-4.794 0-6.116-.66-6.336-.827-.166-.11-.276-.275-.33-.496-.056-.22.054-.385.164-.55l.772-.827c.22-.22.44-.386.77-.55.277-.11.607-.167.883-.167h8.1c.33 0 .607.056.938.166.275.11.55.33.77.55l.607.66c.276-.164.606-.33.937-.44l-.44-.496c-.442-.55-.993-.992-1.654-1.322-.66-.33-1.378-.496-2.094-.496h-6.17c-.718 0-1.434.165-2.095.496-.662.33-1.213.77-1.654 1.322l-1.488 1.874c-.33.44-.606.88-.77 1.432-.167.55-.277 1.047-.277 1.598v2.15l4.74 1.268v-.33c0-1.103.937-2.04 2.04-2.04l5.288.055zm-7.55-.22c0 .276-.11.496-.384.66-.11.11-.276.11-.44.11-.11 0-.222 0-.332-.054l-2.094-.936c-.33-.166-.55-.496-.44-.882.055-.386.385-.606.77-.606h2.095c.44 0 .77.33.77.77v.938h.056zM29.35 26.524c-.056 0-.166 0-.22-.055-.497-.11-.773-.607-.663-1.103.166-.66.606-1.267 1.213-1.598.606-.386 1.322-.44 1.983-.276.496.11.772.606.66 1.102-.11.496-.605.77-1.1.66-.22-.054-.44 0-.607.11-.165.112-.33.277-.385.497-.11.386-.495.66-.88.66z"/><path d="M37.504 30.602l-1.928-1.93c.66-1.1.936-2.423.716-3.69-.44-2.7-2.7-4.63-5.455-4.63-.276 0-.55 0-.882.056-2.975.496-5.07 3.306-4.573 6.282.44 2.7 2.7 4.628 5.455 4.628.275 0 .55 0 .88-.055.663-.11 1.324-.33 1.93-.66l1.93 1.928c.274.276.605.386.935.386.33 0 .717-.11.937-.385.605-.55.605-1.432.054-1.928zm-6.06-1.157c-.166.055-.387.055-.607.055-1.82 0-3.36-1.322-3.637-3.14-.33-2.04 1.047-3.913 3.086-4.244.165-.055.385-.055.606-.055 1.818 0 3.36 1.324 3.637 3.142.164.992-.057 1.93-.663 2.755-.606.827-1.432 1.323-2.424 1.488zM23.453 25.808v-.386h-5.18c-.495 0-.88.386-.88.882v.882c0 .496.385.88.88.88H23.838c-.275-.715-.385-1.486-.385-2.258z"/></g></g></svg>