<svg width="28" height="20" viewBox="0 0 28 20" xmlns="http://www.w3.org/2000/svg"><g transform="translate(-10 -13)" fill="none" fill-rule="evenodd"><circle stroke="currentColor" stroke-width="2" cx="24" cy="24" r="24"/><g fill="currentColor"><path d="M32.55 32.538H18.754c-2.548-.048-4.534-2.04-4.534-4.535 0-2.5 2.033-4.534 4.533-4.534.352 0 .7.04 1.04.12.927-2.708 3.46-4.547 6.38-4.547 3.28 0 6.043 2.33 6.632 5.5 1.97.253 3.5 1.942 3.5 3.98 0 2.177-1.72 4.015-3.754 4.015zm-13.797-7.81c-1.806 0-3.276 1.47-3.276 3.275 0 1.803 1.444 3.242 3.288 3.276H32.55c1.353 0 2.496-1.263 2.496-2.756 0-1.514-1.227-2.746-2.738-2.756-.018.002-.035.002-.052.002h-.566l-.06-.563c-.295-2.797-2.64-4.906-5.458-4.906-2.56 0-4.756 1.74-5.34 4.23l-.17.714-.68-.276c-.394-.16-.807-.24-1.23-.24zM22.373 14.042c-.99-.607-2.152-.957-3.4-.957-3.604 0-6.527 2.922-6.527 6.528 0 1.696.652 3.236 1.713 4.397 1.107-1.343 2.783-2.2 4.655-2.2h.062c.027-.05.057-.1.085-.15-.577-.794-.92-1.768-.92-2.825 0-2.497 1.9-4.55 4.33-4.793zM11.678 23.38l.445 1.13 1.128.444-1.127.445-.445 1.127-.445-1.128-1.128-.446 1.128-.445.445-1.13zM34.485 15.202l.756 1.918 1.92.756-1.92.756-.755 1.918-.756-1.918-1.92-.756 1.92-.756.755-1.918zM23.9 16.508l.266.677.676.267-.676.267-.267.675-.268-.676-.677-.268.677-.267.267-.677z"/></g></g></svg>