<svg width="26" height="22" viewBox="0 0 26 22" xmlns="http://www.w3.org/2000/svg"><g transform="translate(-11 -13)" fill="none" fill-rule="evenodd"><circle stroke="currentColor" stroke-width="2" cx="24" cy="24" r="24"/><path d="M37 31.478c0 .38-.307.68-.68.68H33.58v1.37c0 .38-.307.68-.68.68-.38 0-.682-.3-.682-.68v-1.37h-9.57v1.37c0 .38-.31.68-.683.68-.38 0-.68-.3-.68-.68v-1.37H18.55c-.38 0-.68-.3-.68-.68 0-.374.3-.68.68-.68h17.77c.373-.007.68.3.68.68zm-2.39-3.417v.682h.68c.375 0 .683.307.683.68 0 .38-.308.682-.682.682H19.573c-.38 0-.682-.3-.682-.68 0-.375.302-.682.682-.682h.68v-.68h-.68c-.38 0-.682-.303-.682-.683 0-.375.302-.682.682-.682h.68v-.68h-.68c-.38 0-.682-.303-.682-.683 0-.374.302-.68.682-.68h15.72c.373 0 .68.306.68.68 0 .38-.307.682-.68.682h-.682v.68h.68c.375 0 .683.308.683.682 0 .38-.308.68-.682.68h-.68zm-1.368 0h-11.62v.682h11.62v-.68zm0-2.054h-11.62v.68h11.62v-.68zm-18.344 7.776V23.1c0-.236-.307-.423-.682-.423-.38 0-.68.19-.68.422V33.78c0 .235.306.422.68.422.375 0 .682-.187.682-.422zm2.535-18.442c0 .05-.006.095-.01.134v.01l-1.163 5.317-.005.035c-.006.033-.017.067-.034.1-.05.134-.144.246-.26.324-.035.02-.063.038-.096.05-.056.027-.112.044-.173.055-.033.006-.072.01-.11.01H12.847c-.04 0-.072-.004-.11-.01-.04-.005-.074-.017-.113-.028-.04-.01-.073-.033-.106-.05-.035-.022-.068-.04-.102-.067-.01-.01-.028-.022-.04-.04-.02-.02-.043-.038-.06-.066-.01-.01-.022-.023-.028-.034l-.05-.083-.017-.04c-.017-.033-.028-.072-.04-.11-.005-.007-.005-.007-.005-.012l-.016-.08-1.134-5.22c-.006-.022-.01-.04-.01-.056-.007-.023-.012-.05-.012-.073 0-.023-.006-.05-.006-.073 0-.832.866-1.38 2.357-1.524h.005c.022-.453.39-.81.85-.81.457 0 .83.363.853.815.408.04.782.112 1.09.207 1.11.346 1.278.972 1.278 1.318zm-1.407.095c-.24-.13-.87-.296-1.81-.296-.508 0-.92.05-1.24.11-.267.056-.463.123-.574.185l1 4.573h1.624l1-4.573z" fill="currentColor"/></g></svg>