<svg width="22" height="23" viewBox="0 0 22 23" xmlns="http://www.w3.org/2000/svg"><g transform="translate(-13 -13)" fill="none" fill-rule="evenodd"><circle stroke="currentColor" stroke-width="2" cx="24" cy="24" r="24"/><path d="M34.214 13H13.786c-.435 0-.786.35-.786.786v15.107c0 .433.35.785.786.785h3.758l-1.998 4.333c-.182.395-.01.862.385 1.043.107.05.22.073.33.073.296 0 .58-.17.713-.457l2.3-4.992h3.94v4.662c0 .434.353.786.787.786.434 0 .786-.352.786-.786v-4.662h3.94l2.3 4.99c.133.29.418.458.714.458.11 0 .223-.023.33-.073.393-.18.565-.648.383-1.042l-1.997-4.332h3.758c.434 0 .786-.352.786-.785V13.786c0-.434-.352-.786-.786-.786zm-.785 15.108H14.57V14.57h18.86V28.11zm-16.123-2.383c.182 0 .364-.063.512-.19l4.312-3.712 1.775 1.796c.287.29.75.31 1.062.05l6.226-5.2c.334-.277.378-.772.1-1.105-.278-.333-.774-.378-1.106-.1L24.517 22l-1.782-1.803c-.29-.293-.758-.313-1.07-.043l-4.87 4.19c-.33.283-.366.78-.082 1.108.154.18.374.273.594.273z" fill="currentColor"/></g></svg>