<svg width="24" height="24" viewBox="0 0 24 24" xmlns="http://www.w3.org/2000/svg"><g transform="translate(-12 -12)" fill="none" fill-rule="evenodd"><circle stroke="currentColor" stroke-width="2" cx="24" cy="24" r="24"/><g fill="currentColor"><path d="M16.5 30.5c-.276 0-.5-.225-.5-.5v-.587C16 27.225 18.224 25 20.407 25H21c.276 0 .5.223.5.5 0 .275-.224.5-.5.5h-.593C18.783 26 17 27.785 17 29.412V30c0 .275-.224.5-.5.5zM31.5 30.5c-.275 0-.5-.225-.5-.5v-.587C31 27.786 29.216 26 27.592 26H27c-.275 0-.5-.225-.5-.5 0-.277.225-.5.5-.5h.592C29.776 25 32 27.227 32 29.412V30c0 .275-.225.5-.5.5z"/><path d="M24 27.185c-2.206 0-4-1.805-4-4.02v-5.008C20 15.827 21.757 14 24 14c2.243 0 4 1.8 4 4.095v5.07c0 2.215-1.794 4.02-4 4.02zM24 15c-1.682 0-3 1.386-3 3.155v5.007c0 1.667 1.346 3.02 3 3.02s3-1.353 3-3.02v-5.07C27 16.33 25.71 15 24 15z"/><path d="M29.5 18.894c-.275 0-.5-.225-.5-.5v-.445c0-2.73-2.243-4.95-5-4.95s-5 2.22-5 4.95v.443c0 .275-.224.5-.5.5s-.5-.224-.5-.5v-.444c0-3.28 2.69-5.95 6-5.95s6 2.67 6 5.95v.443c0 .276-.225.5-.5.5z"/><path d="M20.5 23h-1.492C17.9 23 17 22.1 17 20.99v-.983C17 18.9 17.9 18 19.008 18H20.5c.276 0 .5.223.5.5v4c0 .275-.224.5-.5.5zm-1.492-4c-.556 0-1.008.45-1.008 1.007v.984c0 .557.452 1.01 1.008 1.01H20v-3h-.992zM28.992 23H27.5c-.275 0-.5-.225-.5-.5v-4c0-.277.225-.5.5-.5h1.492C30.1 18 31 18.9 31 20.006v.984c0 1.11-.9 2.01-2.008 2.01zM28 22h.992c.556 0 1.008-.453 1.008-1.01v-.983C30 19.45 29.548 19 28.992 19H28v3zM35.5 36h-23c-.276 0-.5-.225-.5-.5v-3c0-.277.224-.5.5-.5h23c.275 0 .5.223.5.5v3c0 .275-.225.5-.5.5zM13 35h22v-2H13v2z"/><path d="M22.5 33h-8c-.276 0-.5-.225-.5-.5v-2c0-.277.224-.5.5-.5h8c.276 0 .5.223.5.5v2c0 .275-.224.5-.5.5zM15 32h7v-1h-7v1zM33.5 33h-8c-.275 0-.5-.225-.5-.5v-2c0-.277.225-.5.5-.5h8c.275 0 .5.223.5.5v2c0 .275-.225.5-.5.5zM26 32h7v-1h-7v1zM20.5 20.046c-.276 0-.5-.224-.5-.5 0-.275.224-.5.5-.5.7 0 3.5-.967 3.5-1.813 0-.276.224-.5.5-.5.275 0 .5.224.5.5.08.287 1.382 1.06 2.462.97.276-.02.517.187.536.462.02.275-.186.515-.46.536-1.062.07-2.286-.41-2.95-.954-.997 1.18-3.505 1.8-4.088 1.8z"/></g></g></svg>