<svg width="167" height="20" viewBox="0 0 167 20" xmlns="http://www.w3.org/2000/svg"><g fill="none" fill-rule="evenodd"><path d="M95.3 17h.95L89.125 2 82 17h.95l6.175-13L95.3 17z" stroke="#FF4D55" stroke-width="2" stroke-linecap="round" stroke-linejoin="round" fill="#FF4D55"/><path d="M119.526 13.878c0-2.21-1.248-3.744-3.016-4.394 1.56-.572 2.73-2.106 2.73-4.056 0-3.094-2.236-4.94-5.46-4.94h-6.968V19h7.202c3.276 0 5.512-1.768 5.512-5.122zm-1.976-.052c0 2.08-1.43 3.406-3.718 3.406h-5.044v-6.786h5.044c2.288 0 3.718 1.3 3.718 3.38zm-.286-8.372c0 2.21-1.586 3.224-3.64 3.224h-4.836V2.256h4.836c2.054 0 3.64.988 3.64 3.198zM143.62 19v-1.768h-9.464V.488h-1.976V19h11.44zm22.95 0v-1.768h-9.516V10.55h8.112V8.782h-8.112V2.256h9.516V.488h-11.492V19h11.492zM12.118 19v-1.768H2.654V.488H.678V19h11.44zm13.434 0V.488h-1.976V19h1.976zm24.51-5.096c0-1.534-.546-2.808-1.56-3.666-.78-.676-1.638-1.04-3.38-1.3l-2.028-.312c-.962-.156-1.924-.52-2.496-1.014-.572-.494-.832-1.222-.832-2.132 0-2.054 1.43-3.432 3.9-3.432 1.95 0 3.172.546 4.316 1.586l1.274-1.274C47.67.93 46.11.332 43.744.332c-3.666 0-5.928 2.08-5.928 5.226 0 1.482.468 2.626 1.404 3.458.806.702 1.95 1.17 3.406 1.404l2.158.338c1.352.208 1.82.364 2.418.884.598.52.884 1.352.884 2.314 0 2.158-1.664 3.432-4.368 3.432-2.08 0-3.51-.494-5.044-2.028l-1.352 1.352c1.742 1.742 3.562 2.444 6.344 2.444 3.848 0 6.396-2.002 6.396-5.252zM72.986 2.256V.488H60.298v1.768h5.356V19h1.976V2.256h5.356z" fill="#484848"/></g></svg>