<svg width="20" height="13" viewBox="0 0 20 13" xmlns="http://www.w3.org/2000/svg"><path d="M16.12 4.54c-.435 0-.852.073-1.242.205l-1.07-2.375.265-.726.907-.017v-.76h-3.416c-.298.41.12.408 1.634.743l-.264.743h-6.75C6.64.765 6.385.88 8.43.883V.11C5.612.135 6.1-.18 4.592 4.67c-.23-.042-.47-.066-.712-.066-2.14 0-3.88 1.74-3.88 3.88 0 2.14 1.74 3.882 3.88 3.882 2.14 0 3.88-1.74 3.88-3.88 0-1.602-.974-2.98-2.36-3.572.083-.265.174-.55.272-.852 5.677 5.988 3.547 5.017 6.602 5.14.015 0 .03 0 .043-.002.362 1.768 1.93 3.102 3.802 3.102 2.14 0 3.88-1.74 3.88-3.88 0-2.14-1.74-3.882-3.88-3.882zM6.853 8.485c0 1.64-1.334 2.973-2.973 2.973-1.638 0-2.972-1.334-2.972-2.973 0-1.64 1.333-2.973 2.973-2.973.148 0 .294.012.436.033-.947 2.986-.834 2.646-.84 2.898-.004.212.167.38.383.395.385-.04.298.025 1.264-3.052 1.02.47 1.73 1.503 1.73 2.7zm3.832-.185L5.99 3.183l6.604-.01L10.686 8.3zm1.553.108l-.723-.003 1.873-4.917.727 1.61c-1.12.678-1.873 1.907-1.878 3.31zm2.254-2.474l1.12 2.483-2.467-.007c.004-1.035.54-1.947 1.347-2.476zm1.625 5.46c-1.372 0-2.528-.933-2.87-2.197 3.094.003 3.37.16 3.413-.376-.004-.155-.062-.262-1.41-3.243.275-.083.565-.13.866-.13 1.638 0 2.972 1.335 2.972 2.974 0 1.64-1.334 2.974-2.973 2.974z" fill="currentColor" fill-rule="evenodd"/></svg>