<svg width="21" height="20" viewBox="0 0 21 20" xmlns="http://www.w3.org/2000/svg"><path d="M3.5 3.125v-2.5C3.5.28 3.78 0 4.125 0s.625.28.625.625v2.5c0 .345-.28.625-.625.625S3.5 3.47 3.5 3.125zm10.625.625c.345 0 .625-.28.625-.625v-2.5c0-.345-.28-.625-.625-.625S13.5.28 13.5.625v2.5c0 .345.28.625.625.625zM21 15c0 2.76-2.24 5-5 5s-5-2.24-5-5 2.24-5 5-5 5 2.24 5 5zm-1.25 0c0-2.068-1.682-3.75-3.75-3.75s-3.75 1.682-3.75 3.75 1.682 3.75 3.75 3.75 3.75-1.682 3.75-3.75zM6 7.5H3.5V10H6V7.5zm-2.5 6.25H6v-2.5H3.5v2.5zM7.25 10h2.5V7.5h-2.5V10zm0 3.75h2.5v-2.5h-2.5v2.5zm-5 1.126V6.25H16v2.5h1.25V3.875c0-.76-.605-1.375-1.354-1.375h-.52v.625c0 .688-.56 1.25-1.25 1.25s-1.25-.562-1.25-1.25V2.5h-7.5v.625c0 .688-.56 1.25-1.25 1.25s-1.25-.562-1.25-1.25V2.5h-.522C1.606 2.5 1 3.115 1 3.875v11c0 .757.606 1.375 1.354 1.375H9.75V15H2.354c-.056 0-.104-.06-.104-.124zM13.5 10V7.5H11V10h2.5zm4.375 5H16v-1.875c0-.345-.28-.625-.625-.625s-.625.28-.625.625v2.5c0 .345.28.625.625.625h2.5c.345 0 .625-.28.625-.625S18.22 15 17.875 15z" fill="currentColor" fill-rule="evenodd"/></svg>