<svg width="20" height="19" viewBox="0 0 20 19" xmlns="http://www.w3.org/2000/svg"><path d="M19.09 10.91l-2.617-9.842-9.84 2.616 2.614 9.84 9.842-2.615zM15.606 2.56l1.99 7.482-7.483 1.987-1.99-7.48 7.483-1.988zM20 13.64l-.313-1.18-9.724 2.585c-.447-.824-1.32-1.387-2.32-1.387-.024 0-.047.003-.07.003L4.613 2.514l-4-2.32L0 1.25l3.563 2.065 2.83 10.656c-.824.446-1.387 1.32-1.387 2.322 0 1.454 1.184 2.636 2.636 2.636 1.454 0 2.636-1.182 2.636-2.636 0-.023-.004-.046-.004-.07L20 13.64zM7.642 17.708c-.78 0-1.415-.635-1.415-1.416 0-.78.634-1.415 1.415-1.415.78 0 1.416.634 1.416 1.415 0 .78-.636 1.416-1.416 1.416z" fill="currentColor" fill-rule="evenodd"/></svg>