<svg width="16" height="17" viewBox="0 0 16 17" xmlns="http://www.w3.org/2000/svg"><path d="M8.757.142c-.128.013-.252.07-.344.163L.157 8.567c-.21.21-.21.59 0 .8l6.618 6.618c.21.21.59.21.8 0l8.256-8.262c.108-.104.17-.25.17-.4V.704c-.002-.294-.27-.56-.563-.563h-6.68zm.288 1.132h5.823V7.09l-7.693 7.694-5.823-5.817 7.693-7.693zm3.32.957c-.395 0-.794.153-1.094.452-.597.598-.597 1.584 0 2.182.6.6 1.586.6 2.184 0 .6-.598.6-1.584 0-2.182-.3-.3-.692-.45-1.088-.45zm0 1.127c.104 0 .205.042.29.125.165.166.17.422.005.588-.166.166-.422.166-.588 0-.166-.166-.166-.422 0-.588.084-.083.19-.125.294-.125z" fill="currentColor" fill-rule="evenodd"/></svg>