<svg width="20" height="19" viewBox="0 0 20 19" xmlns="http://www.w3.org/2000/svg"><g fill="currentColor" fill-rule="evenodd"><path d="M2.36 5.933c.6 0 1.24.8 1.24 1.96s-.68 1.96-1.24 1.96c-.6 0-1.24-.8-1.24-1.96s.64-1.96 1.24-1.96zm0-1.08c-1.28 0-2.32 1.36-2.32 3.04s1.04 3.04 2.32 3.04c1.28 0 2.32-1.36 2.32-3.04s-1.04-3.04-2.32-3.04zM17.64 5.933c.6 0 1.24.8 1.24 1.96s-.68 1.96-1.24 1.96c-.6 0-1.24-.8-1.24-1.96s.68-1.96 1.24-1.96zm0-1.08c-1.28 0-2.32 1.36-2.32 3.04s1.04 3.04 2.32 3.04c1.28 0 2.36-1.4 2.36-3.08 0-1.68-1.04-3-2.36-3zM6.88 1.733c.6 0 1.24.8 1.24 1.96s-.68 1.96-1.24 1.96c-.56 0-1.24-.8-1.24-1.96s.64-1.96 1.24-1.96zm0-1.08c-1.28 0-2.32 1.36-2.32 3.04s1.04 3.04 2.32 3.04c1.28 0 2.32-1.36 2.32-3.04S8.16.653 6.88.653zM13.12 1.733c.6 0 1.24.8 1.24 1.96s-.68 1.96-1.24 1.96c-.56 0-1.24-.8-1.24-1.96s.64-1.96 1.24-1.96zm0-1.08c-1.28 0-2.32 1.36-2.32 3.04s1.04 3.04 2.32 3.04c1.28 0 2.32-1.36 2.32-3.04S14.4.653 13.12.653zM10 7.973c1.04 0 2 .56 2.44 1.52.56 1.12 1.48 2.04 2.6 2.6.92.48 1.52 1.4 1.52 2.44 0 1.52-1.24 2.76-2.76 2.76-.44 0-.88-.12-1.28-.32-.76-.4-1.68-.6-2.56-.6-.92 0-1.8.2-2.56.6-.4.2-.8.32-1.28.32-1.52 0-2.76-1.24-2.76-2.76 0-1.04.56-2 1.52-2.44 1.12-.56 2.04-1.48 2.6-2.6.52-.92 1.48-1.52 2.52-1.52zm0-1.08c-1.48 0-2.8.84-3.4 2.12-.48.92-1.2 1.68-2.12 2.12-1.24.64-2.12 1.92-2.12 3.44 0 2.12 1.72 3.84 3.84 3.84.64 0 1.24-.16 1.76-.44.64-.32 1.36-.48 2.08-.48s1.44.16 2.08.48c.52.28 1.12.44 1.76.44 2.12 0 3.84-1.72 3.84-3.84 0-1.48-.84-2.8-2.12-3.44-.92-.48-1.68-1.2-2.12-2.12-.68-1.24-2-2.12-3.48-2.12z"/></g></svg>