<svg width="20" height="20" viewBox="0 0 20 20" xmlns="http://www.w3.org/2000/svg"><g fill="currentColor" fill-rule="evenodd"><path d="M.387 4.303l4.16 4.16 11.26 11.26c.128.128.322.193.516.193.193 0 .354-.065.516-.194l2.74-2.742c.13-.13.226-.322.226-.516s-.064-.387-.225-.516l-2.87-2.87L8.323 4.69 4.16.56c-.29-.29-.74-.29-1.03 0L.386 3.304c-.13.13-.226.322-.226.516.034.16.098.354.227.483zm14.807 9.322l-1.71 1.71-7.387-7.387 1.71-1.71 7.387 7.387zm1.16 4.58l-1.87-1.87 1.71-1.71 1.87 1.87-1.71 1.71zM3.645 2.078l3.162 3.16-1.71 1.71-3.16-3.16 1.71-1.71zM19.806 1.045c0-.387-.322-.71-.71-.71-.386 0-.71.323-.71.71v9.935c0 .387.324.71.71.71.388 0 .71-.323.71-.71V1.045zM15.677 1.045v6.903c0 .387.323.71.71.71.387 0 .71-.323.71-.71V1.045c0-.387-.323-.71-.71-.71-.387 0-.71.323-.71.71z"/></g></svg>