<svg width="20" height="15" viewBox="0 0 20 15" xmlns="http://www.w3.org/2000/svg"><path d="M19.145.86C18.413.005 17.253.004 15.783 0H4.03C2.49 0 1.378.002.65.83 0 1.57 0 2.56 0 4.35v5.523c0 3.518.36 4.34 3.904 4.35h11.882c1.515 0 2.608 0 3.338-.836.657-.752.657-1.792.657-3.514V4.35c0-1.77 0-2.745-.635-3.49zm-15.113.325h11.75c1.45.003 2.12.046 2.462.446.25.294.323.746.343 1.63H1.193c.02-.9.093-1.357.348-1.648.358-.406 1.1-.426 2.492-.427zm14.2 11.422c-.36.41-1.086.43-2.45.432H3.907c-2.72-.01-2.72-.128-2.72-3.167v-3.65h17.41v3.65c0 1.494 0 2.317-.365 2.734z" fill="currentColor" fill-rule="evenodd"/></svg>