<svg width="22" height="21" viewBox="0 0 22 21" xmlns="http://www.w3.org/2000/svg"><path d="M16.812 4.457c-.134-.238-.328-.41-.563-.504-.03-.016-.06-.027-.093-.033l-.023-.004c-.065-.018-.132-.03-.197-.034-.365-.06-.628-.07-.785-.07-.067 0-.12.002-.16.003.577-.338.965-.963.965-1.678 0-1.07-.872-1.944-1.943-1.944-1.072 0-1.944.873-1.944 1.944 0 .71.383 1.334.955 1.673l-.055-.004c-.098-.007-.247-.018-.423-.018-1.2 0-1.697.484-1.904.893-.354.67-.688 1.363-1.01 2.03-.492 1.023-1 2.08-1.59 3.064-.096.16-.15.326-.166.5-.114.153-.19.344-.212.55-.065.578-.345.764-.59.84-.046-.027-.096-.05-.145-.072.46-.284.766-.79.766-1.37 0-.887-.72-1.61-1.607-1.61-.888 0-1.61.723-1.61 1.61 0 .54.27 1.02.68 1.31-.81.164-1.315.54-1.644 1.213-.37.756-.445 1.58-.512 2.307-.03.334.098.55.21.673.166.182.422.285.694.285.224 0 .443-.072.647-.214v3.414c0 .614.476.936.952.936.303 0 .604-.13.785-.38.182.25.475.378.776.378.476 0 .946-.32.946-.936v-3.752c0-.025.016-.048.013-.07.014-.076.037-.153.037-.232v-1.826c.255-.115.457-.26.66-.443.373-.337.622-.805.763-1.427.24-.087.442-.258.584-.496.483-.803.907-1.643 1.312-2.475l-.012 4.168v6.296c0 .698.537 1.243 1.22 1.243.7 0 1.27-.557 1.27-1.242V12.42c0-.056.04-.056.068-.056.007 0 .02 0 .024.002.002.004.01.01.01.013v6.559c0 .685.56 1.243 1.26 1.243s1.264-.558 1.264-1.24l.03-6.77v-1.363c.206.175.483.265.776.265.58 0 1.18-.383 1.2-1.13.062-2.1-.815-3.948-1.68-5.485zM14.014.805c.735 0 1.333.6 1.333 1.334 0 .734-.598 1.332-1.333 1.332-.736 0-1.334-.598-1.334-1.333 0-.736.598-1.335 1.334-1.335zm.683 3.154c-.01.013-.017.027-.024.044l-.025.055c-.005-.026-.015-.05-.025-.074.024-.01.05-.02.074-.027zm-1.285.027c-.012.026-.02.052-.025.08l-.038-.08-.017-.028.08.027zm-7.325 5.24c.55 0 .998.448.998 1 0 .55-.448.997-.998.997s-.997-.447-.997-.998c0-.55.448-.998.997-.998zm11.796.702c-.013.43-.377.544-.59.544-.167 0-.317-.057-.413-.156-.088-.09-.13-.214-.125-.37.02-.63-.06-1.26-.246-1.92-.04-.146-.185-.24-.336-.22-.15.02-.263.15-.264.303l-.006 4.06-.03 6.77c0 .347-.286.63-.65.63-.363 0-.65-.283-.65-.63v-6.56c0-.058-.017-.278-.183-.45-.08-.082-.227-.18-.46-.18h-.013c-.45.007-.644.37-.667.614V18.952c0 .347-.297.63-.66.63-.352 0-.61-.265-.61-.63v-6.295l.014-5.506c0-.142-.098-.265-.238-.298-.023-.005-.046-.008-.07-.008-.114 0-.22.065-.273.173l-.274.566c-.493 1.025-1.003 2.084-1.595 3.07-.09.15-.214.238-.37.26-.13.018-.232.117-.255.246-.106.58-.307 1-.615 1.276-.2.18-.422.314-.68.413-.128.048-.2.178-.186.316.003.043.012.088.012.134v1.858c0 .056-.012.108-.023.163-.008.032-.013.063-.01.094.002.01-.01.024-.007.034 0 .006-.01.01-.01.014v3.752c0 .31-.274.325-.332.325-.057 0-.33-.017-.33-.326V15.97c0-.162-.133-.295-.294-.305-.02 0-.067-.004-.113-.007l-.165-.01c-.083-.003-.177.028-.237.085-.058.057-.104.137-.104.22v3.26c0 .31-.273.326-.33.326-.06 0-.332-.017-.332-.326V15.51l-.003-.066-.002-.005c.002-.032-.01-.064-.016-.095-.015-.055-.03-.116-.03-.186v-1.385c0-.148-.1-.274-.244-.3-.145-.028-.285.055-.336.194-.143.382-.178.823-.21 1.21-.006.06-.01.12-.014.175-.025.274-.267.35-.407.35-.098 0-.186-.034-.235-.088-.044-.048-.06-.117-.053-.207.064-.708.13-1.44.452-2.092.298-.608.772-.873 1.687-.947l.03-.003c.02-.004.085-.013.233-.013.07 0 .133.002.17.003h.046c.22 0 .44.067.636.19.067.043.147.058.224.043.677-.136 1.097-.632 1.183-1.394.013-.12.057-.222.123-.29.057-.058.088-.14.087-.22-.003-.102.024-.198.083-.294.605-1.008 1.12-2.077 1.617-3.112.32-.665.65-1.352 1-2.012 0 0 0-.004.002-.005.19-.372.646-.56 1.36-.56.128 0 .24.006.327.012l.796 1.702c.063.137.218.206.363.163h.012c.145.04.298-.03.36-.17l.75-1.686c.137 0 .37.01.7.065l.03.002c.032 0 .064.008.1.018.004 0 .01.003.013.004H16c.116.04.207.12.277.245.826 1.46 1.662 3.22 1.606 5.17z" fill="currentColor" fill-rule="evenodd"/></svg>