<svg width="22" height="9" viewBox="0 0 22 9" xmlns="http://www.w3.org/2000/svg"><g fill="currentColor" fill-rule="evenodd"><path d="M1.76 7.7H.13V5.156l.023-.084C.217 4.84.907 2.79 5.603 2.79c1.267 0 2.054-.64 2.814-1.26C9.097.976 9.802.404 10.763.404h5.46l2.386 1.654h3.32v4.388l-.245.196c-.118.095-1.186.923-2.356.923v-1.31c.452 0 .968-.26 1.29-.464V3.37H18.2l-2.385-1.655h-5.052c-.496 0-.947.368-1.52.833-.85.692-1.908 1.552-3.64 1.552-3.228 0-4.028 1.046-4.163 1.274V6.39h.32V7.7z"/><path d="M4.044 8.845c-1.02 0-1.85-.83-1.85-1.85s.83-1.848 1.85-1.848 1.85.83 1.85 1.85-.83 1.848-1.85 1.848zm0-2.388c-.298 0-.54.242-.54.54 0 .297.242.54.54.54.297 0 .54-.243.54-.54 0-.298-.243-.54-.54-.54zM17.113 8.845c-1.02 0-1.85-.83-1.85-1.85s.83-1.848 1.85-1.848 1.85.83 1.85 1.85-.83 1.848-1.85 1.848zm0-2.388c-.298 0-.54.242-.54.54 0 .297.242.54.54.54.298 0 .54-.243.54-.54 0-.298-.242-.54-.54-.54zM6.237 6.34h8.615v1.31H6.237z"/></g></svg>