<svg width="19" height="20" viewBox="0 0 19 20" xmlns="http://www.w3.org/2000/svg"><g fill="currentColor" fill-rule="evenodd"><path d="M17.302 16.298l1.257-.814-1.23-1.993-1.288.834-3.21-5.03H7.808v-.688h5.62v-2.34H7.807V4.158c.62-.39 1.03-1.08 1.03-1.864C8.84 1.08 7.854.093 6.637.093c-1.216 0-2.203.986-2.203 2.203 0 .785.413 1.473 1.033 1.863v7.475h6.08l3.785 5.93.008-.006.003.004.75-.485 1.214-.776-.002-.006z"/><path d="M6.912 17.19c-2.466 0-4.473-2.007-4.473-4.473 0-1.656.906-3.1 2.246-3.875V6.69C2.236 7.594.488 9.95.488 12.716c0 3.548 2.876 6.424 6.423 6.424 2.71 0 5.027-1.677 5.972-4.05l-1.498-2.347c-.014 2.455-2.014 4.447-4.472 4.447z"/></g></svg>