<svg 
 xmlns="http://www.w3.org/2000/svg"
 xmlns:xlink="http://www.w3.org/1999/xlink"
 width="12px" height="22px">
<path fill-rule="evenodd"  fill="rgb(255, 255, 255)"
 d="M10.672,15.531 C9.938,15.531 9.344,14.951 9.344,14.234 C9.344,13.518 9.938,12.937 10.672,12.937 C11.405,12.937 12.000,13.518 12.000,14.234 C12.000,14.951 11.405,15.531 10.672,15.531 ZM10.672,9.063 C9.938,9.063 9.344,8.482 9.344,7.766 C9.344,7.049 9.938,6.469 10.672,6.469 C11.405,6.469 12.000,7.049 12.000,7.766 C12.000,8.482 11.405,9.063 10.672,9.063 ZM10.672,2.594 C9.938,2.594 9.344,2.013 9.344,1.297 C9.344,0.581 9.938,-0.000 10.672,-0.000 C11.405,-0.000 12.000,0.581 12.000,1.297 C12.000,2.013 11.405,2.594 10.672,2.594 ZM6.000,18.750 C5.258,18.750 4.656,18.176 4.656,17.469 C4.656,16.761 5.258,16.187 6.000,16.187 C6.742,16.187 7.344,16.761 7.344,17.469 C7.344,18.176 6.742,18.750 6.000,18.750 ZM6.000,12.281 C5.258,12.281 4.656,11.708 4.656,11.000 C4.656,10.292 5.258,9.719 6.000,9.719 C6.742,9.719 7.344,10.292 7.344,11.000 C7.344,11.708 6.742,12.281 6.000,12.281 ZM6.000,5.813 C5.258,5.813 4.656,5.239 4.656,4.531 C4.656,3.824 5.258,3.250 6.000,3.250 C6.742,3.250 7.344,3.824 7.344,4.531 C7.344,5.239 6.742,5.813 6.000,5.813 ZM1.328,22.000 C0.595,22.000 -0.000,21.419 -0.000,20.703 C-0.000,19.987 0.595,19.406 1.328,19.406 C2.062,19.406 2.656,19.987 2.656,20.703 C2.656,21.419 2.062,22.000 1.328,22.000 ZM1.328,15.531 C0.595,15.531 -0.000,14.951 -0.000,14.234 C-0.000,13.518 0.595,12.937 1.328,12.937 C2.062,12.937 2.656,13.518 2.656,14.234 C2.656,14.951 2.062,15.531 1.328,15.531 ZM1.328,9.063 C0.595,9.063 -0.000,8.482 -0.000,7.766 C-0.000,7.049 0.595,6.469 1.328,6.469 C2.062,6.469 2.656,7.049 2.656,7.766 C2.656,8.482 2.062,9.063 1.328,9.063 ZM1.328,2.594 C0.595,2.594 -0.000,2.013 -0.000,1.297 C-0.000,0.581 0.595,-0.000 1.328,-0.000 C2.062,-0.000 2.656,0.581 2.656,1.297 C2.656,2.013 2.062,2.594 1.328,2.594 ZM10.672,19.406 C11.405,19.406 12.000,19.987 12.000,20.703 C12.000,21.419 11.405,22.000 10.672,22.000 C9.938,22.000 9.344,21.419 9.344,20.703 C9.344,19.987 9.938,19.406 10.672,19.406 Z"/>
</svg>