<?xml version="1.0" encoding="UTF-8" standalone="no"?>
<svg width="20px" height="20px" viewBox="0 0 20 20" version="1.1" xmlns="http://www.w3.org/2000/svg" xmlns:xlink="http://www.w3.org/1999/xlink">
    <!-- Generator: Sketch 3.6.1 (26313) - http://www.bohemiancoding.com/sketch -->
    <title>Page 1</title>
    <desc>Created with Sketch.</desc>
    <defs></defs>
    <g id="Options" stroke="none" stroke-width="1" fill="none" fill-rule="evenodd">
        <g id="Desktop-HD-Copy-2" transform="translate(-1109.000000, -567.000000)" fill="#FFFFFF">
            <g id="V6-Copy-2" transform="translate(904.000000, 358.000000)">
                <g id="Toolbar" transform="translate(138.000000, 196.000000)">
                    <g id="Page-1" transform="translate(67.000000, 13.000000)">
                        <path d="M14.9970909,0.0127272727 L14.9970909,2.00981818 L17.9901818,2.00981818 L17.9901818,5.00836364 L19.9872727,5.00836364 L19.9872727,0.0127272727 L14.9970909,0.0127272727 Z" id="Fill-1"></path>
                        <path d="M2.00981818,2.00981818 L5.00836364,2.00981818 L5.00836364,0.0127272727 L0.0127272727,0.0127272727 L0.0127272727,5.00836364 L2.00981818,5.00836364 L2.00981818,2.00981818 Z" id="Fill-2"></path>
                        <path d="M17.9901818,17.9901818 L14.9970909,17.9901818 L14.9970909,19.9872727 L19.9872727,19.9872727 L19.9872727,14.9970909 L17.9901818,14.9970909 L17.9901818,17.9901818 Z" id="Fill-3"></path>
                        <path d="M2.00981818,14.9970909 L0.0127272727,14.9970909 L0.0127272727,19.9872727 L5.00836364,19.9872727 L5.00836364,17.9901818 L2.00981818,17.9901818 L2.00981818,14.9970909 Z" id="Fill-4"></path>
                        <path d="M12.9985455,10 C12.9985455,11.6563636 11.6563636,12.9985455 10,12.9985455 C8.34363636,12.9985455 7.00145455,11.6563636 7.00145455,10 C7.00145455,8.34363636 8.34363636,7.00145455 10,7.00145455 C11.6563636,7.00145455 12.9985455,8.34363636 12.9985455,10" id="Fill-6"></path>
                    </g>
                </g>
            </g>
        </g>
    </g>
</svg>